<mxfile host="app.diagrams.net" agent="Mozilla/5.0 (X11; Ubuntu; Linux x86_64; rv:137.0) Gecko/20100101 Firefox/137.0" version="27.1.5">
  <diagram name="Page-1" id="YV9h9TjK9BBwD0EoSyPw">
    <mxGraphModel dx="3513" dy="2160" grid="1" gridSize="10" guides="1" tooltips="1" connect="1" arrows="1" fold="1" page="1" pageScale="1" pageWidth="850" pageHeight="1100" math="0" shadow="0">
      <root>
        <mxCell id="0" />
        <mxCell id="1" parent="0" />
        <mxCell id="Fa6GfZsPcnkaOSwE8bsE-76" value="" style="rounded=0;whiteSpace=wrap;html=1;fillColor=none;" vertex="1" parent="1">
          <mxGeometry x="-940" y="-400" width="1030" height="490" as="geometry" />
        </mxCell>
        <mxCell id="Fa6GfZsPcnkaOSwE8bsE-77" value="" style="rounded=0;whiteSpace=wrap;html=1;fillColor=none;" vertex="1" parent="1">
          <mxGeometry x="-940" y="220" width="1030" height="490" as="geometry" />
        </mxCell>
        <mxCell id="MC8U4YQa0FiXzc1xEEIF-54" value="" style="rounded=0;whiteSpace=wrap;html=1;fillColor=none;" parent="1" vertex="1">
          <mxGeometry x="-260" y="-380" width="330" height="450" as="geometry" />
        </mxCell>
        <mxCell id="MC8U4YQa0FiXzc1xEEIF-3" style="edgeStyle=none;curved=1;rounded=0;orthogonalLoop=1;jettySize=auto;html=1;entryX=1;entryY=0.5;entryDx=0;entryDy=0;fontSize=16;startSize=8;endSize=8;" parent="1" edge="1">
          <mxGeometry relative="1" as="geometry">
            <mxPoint x="-116" y="58" as="sourcePoint" />
            <mxPoint x="-116" y="58" as="targetPoint" />
          </mxGeometry>
        </mxCell>
        <mxCell id="MC8U4YQa0FiXzc1xEEIF-4" value="4" style="ellipse;whiteSpace=wrap;html=1;fontSize=16;fillColor=#f8cecc;strokeColor=#b85450;" parent="1" vertex="1">
          <mxGeometry x="-68" y="-166" width="60" height="60" as="geometry" />
        </mxCell>
        <mxCell id="MC8U4YQa0FiXzc1xEEIF-5" value="2" style="ellipse;whiteSpace=wrap;html=1;fontSize=16;fillColor=#f8cecc;strokeColor=#b85450;" parent="1" vertex="1">
          <mxGeometry x="-128" y="-71" width="60" height="60" as="geometry" />
        </mxCell>
        <mxCell id="MC8U4YQa0FiXzc1xEEIF-8" value="5" style="ellipse;whiteSpace=wrap;html=1;fontSize=16;fillColor=#f8cecc;strokeColor=#b85450;" parent="1" vertex="1">
          <mxGeometry x="-68" y="-279" width="60" height="60" as="geometry" />
        </mxCell>
        <mxCell id="MC8U4YQa0FiXzc1xEEIF-11" value="3" style="ellipse;whiteSpace=wrap;html=1;fontSize=16;fillColor=#f8cecc;strokeColor=#b85450;" parent="1" vertex="1">
          <mxGeometry x="-8" y="-71" width="60" height="60" as="geometry" />
        </mxCell>
        <mxCell id="MC8U4YQa0FiXzc1xEEIF-13" value="" style="endArrow=classic;html=1;rounded=0;entryX=0.5;entryY=1;entryDx=0;entryDy=0;" parent="1" target="MC8U4YQa0FiXzc1xEEIF-5" edge="1">
          <mxGeometry width="50" height="50" relative="1" as="geometry">
            <mxPoint x="-98" y="40" as="sourcePoint" />
            <mxPoint x="-80" y="40" as="targetPoint" />
          </mxGeometry>
        </mxCell>
        <mxCell id="MC8U4YQa0FiXzc1xEEIF-15" value="" style="endArrow=classic;html=1;rounded=0;entryX=0;entryY=1;entryDx=0;entryDy=0;exitX=0.5;exitY=0;exitDx=0;exitDy=0;" parent="1" source="MC8U4YQa0FiXzc1xEEIF-5" target="MC8U4YQa0FiXzc1xEEIF-4" edge="1">
          <mxGeometry width="50" height="50" relative="1" as="geometry">
            <mxPoint x="-94" y="50" as="sourcePoint" />
            <mxPoint x="-94" y="-1" as="targetPoint" />
          </mxGeometry>
        </mxCell>
        <mxCell id="MC8U4YQa0FiXzc1xEEIF-16" value="" style="endArrow=classic;html=1;rounded=0;entryX=1;entryY=1;entryDx=0;entryDy=0;exitX=0.5;exitY=0;exitDx=0;exitDy=0;" parent="1" source="MC8U4YQa0FiXzc1xEEIF-11" target="MC8U4YQa0FiXzc1xEEIF-4" edge="1">
          <mxGeometry width="50" height="50" relative="1" as="geometry">
            <mxPoint x="-94" y="-61" as="sourcePoint" />
            <mxPoint x="-58" y="-105" as="targetPoint" />
          </mxGeometry>
        </mxCell>
        <mxCell id="MC8U4YQa0FiXzc1xEEIF-18" value="" style="endArrow=classic;html=1;rounded=0;entryX=0.5;entryY=1;entryDx=0;entryDy=0;exitX=0.5;exitY=0;exitDx=0;exitDy=0;" parent="1" source="MC8U4YQa0FiXzc1xEEIF-4" target="MC8U4YQa0FiXzc1xEEIF-8" edge="1">
          <mxGeometry width="50" height="50" relative="1" as="geometry">
            <mxPoint x="-94" y="-61" as="sourcePoint" />
            <mxPoint x="-58" y="-105" as="targetPoint" />
          </mxGeometry>
        </mxCell>
        <mxCell id="MC8U4YQa0FiXzc1xEEIF-19" value="" style="endArrow=classic;html=1;rounded=0;exitX=0.5;exitY=0;exitDx=0;exitDy=0;" parent="1" source="MC8U4YQa0FiXzc1xEEIF-8" edge="1">
          <mxGeometry width="50" height="50" relative="1" as="geometry">
            <mxPoint x="-47.5" y="-279" as="sourcePoint" />
            <mxPoint x="-38" y="-330" as="targetPoint" />
          </mxGeometry>
        </mxCell>
        <mxCell id="MC8U4YQa0FiXzc1xEEIF-20" value="" style="rounded=0;whiteSpace=wrap;html=1;fillColor=none;" parent="1" vertex="1">
          <mxGeometry x="-920" y="-330" width="530" height="350" as="geometry" />
        </mxCell>
        <mxCell id="MC8U4YQa0FiXzc1xEEIF-21" value="" style="endArrow=classic;html=1;rounded=0;entryX=0.5;entryY=1;entryDx=0;entryDy=0;exitX=0.5;exitY=0;exitDx=0;exitDy=0;" parent="1" source="MC8U4YQa0FiXzc1xEEIF-24" target="MC8U4YQa0FiXzc1xEEIF-11" edge="1">
          <mxGeometry width="50" height="50" relative="1" as="geometry">
            <mxPoint x="21.599999999999994" y="40" as="sourcePoint" />
            <mxPoint x="21.599999999999994" y="-11" as="targetPoint" />
          </mxGeometry>
        </mxCell>
        <mxCell id="MC8U4YQa0FiXzc1xEEIF-22" value="Input 2" style="text;html=1;align=center;verticalAlign=middle;whiteSpace=wrap;rounded=0;fontSize=16;" parent="1" vertex="1">
          <mxGeometry x="-128" y="40" width="60" height="30" as="geometry" />
        </mxCell>
        <mxCell id="MC8U4YQa0FiXzc1xEEIF-24" value="Input 3" style="text;html=1;align=center;verticalAlign=middle;whiteSpace=wrap;rounded=0;fontSize=16;" parent="1" vertex="1">
          <mxGeometry x="-8" y="40" width="60" height="30" as="geometry" />
        </mxCell>
        <mxCell id="MC8U4YQa0FiXzc1xEEIF-25" value="Output" style="text;html=1;align=center;verticalAlign=middle;whiteSpace=wrap;rounded=0;fontSize=16;" parent="1" vertex="1">
          <mxGeometry x="-68" y="-370" width="60" height="30" as="geometry" />
        </mxCell>
        <mxCell id="MC8U4YQa0FiXzc1xEEIF-26" value="Genome (Genotype)" style="text;html=1;align=center;verticalAlign=middle;whiteSpace=wrap;rounded=0;fontSize=16;fontStyle=1" parent="1" vertex="1">
          <mxGeometry x="-920" y="-320" width="100" height="30" as="geometry" />
        </mxCell>
        <mxCell id="MC8U4YQa0FiXzc1xEEIF-27" value="" style="shape=table;startSize=0;container=1;collapsible=0;childLayout=tableLayout;strokeWidth=2;swimlaneFillColor=none;" parent="1" vertex="1">
          <mxGeometry x="-900" y="-260" width="480" height="85" as="geometry" />
        </mxCell>
        <mxCell id="MC8U4YQa0FiXzc1xEEIF-28" value="" style="shape=tableRow;horizontal=0;startSize=0;swimlaneHead=0;swimlaneBody=0;strokeColor=inherit;top=0;left=0;bottom=0;right=0;collapsible=0;dropTarget=0;fillColor=none;points=[[0,0.5],[1,0.5]];portConstraint=eastwest;" parent="MC8U4YQa0FiXzc1xEEIF-27" vertex="1">
          <mxGeometry width="480" height="40" as="geometry" />
        </mxCell>
        <mxCell id="MC8U4YQa0FiXzc1xEEIF-29" value="Node Gene" style="shape=partialRectangle;html=1;whiteSpace=wrap;connectable=0;strokeColor=inherit;overflow=hidden;fillColor=#f8cecc;top=0;left=0;bottom=0;right=0;pointerEvents=1;fontSize=16;rowspan=1;colspan=6;" parent="MC8U4YQa0FiXzc1xEEIF-28" vertex="1">
          <mxGeometry width="480" height="40" as="geometry">
            <mxRectangle width="80" height="40" as="alternateBounds" />
          </mxGeometry>
        </mxCell>
        <mxCell id="Fa6GfZsPcnkaOSwE8bsE-51" style="shape=partialRectangle;html=1;whiteSpace=wrap;connectable=0;strokeColor=inherit;overflow=hidden;fillColor=#f8cecc;top=0;left=0;bottom=0;right=0;pointerEvents=1;fontSize=16;" vertex="1" visible="0" parent="MC8U4YQa0FiXzc1xEEIF-28">
          <mxGeometry x="80" width="80" height="40" as="geometry">
            <mxRectangle width="80" height="40" as="alternateBounds" />
          </mxGeometry>
        </mxCell>
        <mxCell id="MC8U4YQa0FiXzc1xEEIF-30" value="" style="shape=partialRectangle;html=1;whiteSpace=wrap;connectable=0;strokeColor=inherit;overflow=hidden;fillColor=none;top=0;left=0;bottom=0;right=0;pointerEvents=1;" parent="MC8U4YQa0FiXzc1xEEIF-28" vertex="1" visible="0">
          <mxGeometry x="160" width="80" height="40" as="geometry">
            <mxRectangle width="80" height="40" as="alternateBounds" />
          </mxGeometry>
        </mxCell>
        <mxCell id="MC8U4YQa0FiXzc1xEEIF-31" value="" style="shape=partialRectangle;html=1;whiteSpace=wrap;connectable=0;strokeColor=inherit;overflow=hidden;fillColor=none;top=0;left=0;bottom=0;right=0;pointerEvents=1;" parent="MC8U4YQa0FiXzc1xEEIF-28" vertex="1" visible="0">
          <mxGeometry x="240" width="80" height="40" as="geometry">
            <mxRectangle width="80" height="40" as="alternateBounds" />
          </mxGeometry>
        </mxCell>
        <mxCell id="MC8U4YQa0FiXzc1xEEIF-32" value="" style="shape=partialRectangle;html=1;whiteSpace=wrap;connectable=0;strokeColor=inherit;overflow=hidden;fillColor=none;top=0;left=0;bottom=0;right=0;pointerEvents=1;" parent="MC8U4YQa0FiXzc1xEEIF-28" vertex="1" visible="0">
          <mxGeometry x="320" width="80" height="40" as="geometry">
            <mxRectangle width="80" height="40" as="alternateBounds" />
          </mxGeometry>
        </mxCell>
        <mxCell id="MC8U4YQa0FiXzc1xEEIF-63" style="shape=partialRectangle;html=1;whiteSpace=wrap;connectable=0;strokeColor=inherit;overflow=hidden;fillColor=none;top=0;left=0;bottom=0;right=0;pointerEvents=1;" parent="MC8U4YQa0FiXzc1xEEIF-28" vertex="1" visible="0">
          <mxGeometry x="400" width="80" height="40" as="geometry">
            <mxRectangle width="80" height="40" as="alternateBounds" />
          </mxGeometry>
        </mxCell>
        <mxCell id="MC8U4YQa0FiXzc1xEEIF-33" value="" style="shape=tableRow;horizontal=0;startSize=0;swimlaneHead=0;swimlaneBody=0;strokeColor=inherit;top=0;left=0;bottom=0;right=0;collapsible=0;dropTarget=0;fillColor=none;points=[[0,0.5],[1,0.5]];portConstraint=eastwest;" parent="MC8U4YQa0FiXzc1xEEIF-27" vertex="1">
          <mxGeometry y="40" width="480" height="45" as="geometry" />
        </mxCell>
        <mxCell id="MC8U4YQa0FiXzc1xEEIF-34" value="&lt;div&gt;Node 1&lt;/div&gt;&lt;div&gt;Input&lt;/div&gt;" style="shape=partialRectangle;html=1;whiteSpace=wrap;connectable=0;strokeColor=inherit;overflow=hidden;fillColor=#f5f5f5;top=0;left=0;bottom=0;right=0;pointerEvents=1;fontSize=16;fontColor=#333333;" parent="MC8U4YQa0FiXzc1xEEIF-33" vertex="1">
          <mxGeometry width="80" height="45" as="geometry">
            <mxRectangle width="80" height="45" as="alternateBounds" />
          </mxGeometry>
        </mxCell>
        <mxCell id="Fa6GfZsPcnkaOSwE8bsE-52" value="&lt;div&gt;Node 2&lt;/div&gt;&lt;div&gt;Input&lt;/div&gt;" style="shape=partialRectangle;html=1;whiteSpace=wrap;connectable=0;strokeColor=inherit;overflow=hidden;fillColor=#f5f5f5;top=0;left=0;bottom=0;right=0;pointerEvents=1;fontSize=16;fontColor=#333333;" vertex="1" parent="MC8U4YQa0FiXzc1xEEIF-33">
          <mxGeometry x="80" width="80" height="45" as="geometry">
            <mxRectangle width="80" height="45" as="alternateBounds" />
          </mxGeometry>
        </mxCell>
        <mxCell id="MC8U4YQa0FiXzc1xEEIF-35" value="&lt;div&gt;Node 3&lt;/div&gt;&lt;div&gt;Input&lt;/div&gt;" style="shape=partialRectangle;html=1;whiteSpace=wrap;connectable=0;strokeColor=inherit;overflow=hidden;fillColor=#f5f5f5;top=0;left=0;bottom=0;right=0;pointerEvents=1;fontSize=16;fontColor=#333333;" parent="MC8U4YQa0FiXzc1xEEIF-33" vertex="1">
          <mxGeometry x="160" width="80" height="45" as="geometry">
            <mxRectangle width="80" height="45" as="alternateBounds" />
          </mxGeometry>
        </mxCell>
        <mxCell id="MC8U4YQa0FiXzc1xEEIF-36" value="&lt;div&gt;Node 4&lt;/div&gt;&lt;div&gt;Hidden&lt;/div&gt;" style="shape=partialRectangle;html=1;whiteSpace=wrap;connectable=0;strokeColor=inherit;overflow=hidden;fillColor=#f5f5f5;top=0;left=0;bottom=0;right=0;pointerEvents=1;fontSize=16;fontColor=#333333;" parent="MC8U4YQa0FiXzc1xEEIF-33" vertex="1">
          <mxGeometry x="240" width="80" height="45" as="geometry">
            <mxRectangle width="80" height="45" as="alternateBounds" />
          </mxGeometry>
        </mxCell>
        <mxCell id="MC8U4YQa0FiXzc1xEEIF-37" value="&lt;div&gt;Node 5&lt;/div&gt;&lt;div&gt;Output&lt;/div&gt;" style="shape=partialRectangle;html=1;whiteSpace=wrap;connectable=0;strokeColor=inherit;overflow=hidden;fillColor=#f5f5f5;top=0;left=0;bottom=0;right=0;pointerEvents=1;fontSize=16;fontColor=#333333;" parent="MC8U4YQa0FiXzc1xEEIF-33" vertex="1">
          <mxGeometry x="320" width="80" height="45" as="geometry">
            <mxRectangle width="80" height="45" as="alternateBounds" />
          </mxGeometry>
        </mxCell>
        <mxCell id="MC8U4YQa0FiXzc1xEEIF-64" value="&lt;div&gt;Node 6&lt;/div&gt;&lt;div&gt;Hidden&lt;/div&gt;" style="shape=partialRectangle;html=1;whiteSpace=wrap;connectable=0;strokeColor=inherit;overflow=hidden;fillColor=#f5f5f5;top=0;left=0;bottom=0;right=0;pointerEvents=1;fontSize=16;fontColor=#333333;" parent="MC8U4YQa0FiXzc1xEEIF-33" vertex="1">
          <mxGeometry x="400" width="80" height="45" as="geometry">
            <mxRectangle width="80" height="45" as="alternateBounds" />
          </mxGeometry>
        </mxCell>
        <mxCell id="MC8U4YQa0FiXzc1xEEIF-38" value="" style="shape=table;startSize=0;container=1;collapsible=0;childLayout=tableLayout;strokeWidth=2;swimlaneFillColor=none;" parent="1" vertex="1">
          <mxGeometry x="-900" y="-150" width="488" height="149" as="geometry" />
        </mxCell>
        <mxCell id="MC8U4YQa0FiXzc1xEEIF-39" value="" style="shape=tableRow;horizontal=0;startSize=0;swimlaneHead=0;swimlaneBody=0;strokeColor=inherit;top=0;left=0;bottom=0;right=0;collapsible=0;dropTarget=0;fillColor=none;points=[[0,0.5],[1,0.5]];portConstraint=eastwest;" parent="MC8U4YQa0FiXzc1xEEIF-38" vertex="1">
          <mxGeometry width="488" height="40" as="geometry" />
        </mxCell>
        <mxCell id="MC8U4YQa0FiXzc1xEEIF-40" value="Connection Gene" style="shape=partialRectangle;html=1;whiteSpace=wrap;connectable=0;strokeColor=inherit;overflow=hidden;fillColor=#f8cecc;top=0;left=0;bottom=0;right=0;pointerEvents=1;fontSize=16;rowspan=1;colspan=5;" parent="MC8U4YQa0FiXzc1xEEIF-39" vertex="1">
          <mxGeometry width="488" height="40" as="geometry">
            <mxRectangle width="98" height="40" as="alternateBounds" />
          </mxGeometry>
        </mxCell>
        <mxCell id="MC8U4YQa0FiXzc1xEEIF-41" value="" style="shape=partialRectangle;html=1;whiteSpace=wrap;connectable=0;strokeColor=inherit;overflow=hidden;fillColor=none;top=0;left=0;bottom=0;right=0;pointerEvents=1;" parent="MC8U4YQa0FiXzc1xEEIF-39" vertex="1" visible="0">
          <mxGeometry x="98" width="98" height="40" as="geometry">
            <mxRectangle width="98" height="40" as="alternateBounds" />
          </mxGeometry>
        </mxCell>
        <mxCell id="MC8U4YQa0FiXzc1xEEIF-42" value="" style="shape=partialRectangle;html=1;whiteSpace=wrap;connectable=0;strokeColor=inherit;overflow=hidden;fillColor=none;top=0;left=0;bottom=0;right=0;pointerEvents=1;" parent="MC8U4YQa0FiXzc1xEEIF-39" vertex="1" visible="0">
          <mxGeometry x="196" width="96" height="40" as="geometry">
            <mxRectangle width="96" height="40" as="alternateBounds" />
          </mxGeometry>
        </mxCell>
        <mxCell id="MC8U4YQa0FiXzc1xEEIF-43" value="" style="shape=partialRectangle;html=1;whiteSpace=wrap;connectable=0;strokeColor=inherit;overflow=hidden;fillColor=none;top=0;left=0;bottom=0;right=0;pointerEvents=1;" parent="MC8U4YQa0FiXzc1xEEIF-39" vertex="1" visible="0">
          <mxGeometry x="292" width="98" height="40" as="geometry">
            <mxRectangle width="98" height="40" as="alternateBounds" />
          </mxGeometry>
        </mxCell>
        <mxCell id="MC8U4YQa0FiXzc1xEEIF-49" style="shape=partialRectangle;html=1;whiteSpace=wrap;connectable=0;strokeColor=inherit;overflow=hidden;fillColor=none;top=0;left=0;bottom=0;right=0;pointerEvents=1;" parent="MC8U4YQa0FiXzc1xEEIF-39" vertex="1" visible="0">
          <mxGeometry x="390" width="98" height="40" as="geometry">
            <mxRectangle width="98" height="40" as="alternateBounds" />
          </mxGeometry>
        </mxCell>
        <mxCell id="MC8U4YQa0FiXzc1xEEIF-44" value="" style="shape=tableRow;horizontal=0;startSize=0;swimlaneHead=0;swimlaneBody=0;strokeColor=inherit;top=0;left=0;bottom=0;right=0;collapsible=0;dropTarget=0;fillColor=none;points=[[0,0.5],[1,0.5]];portConstraint=eastwest;" parent="MC8U4YQa0FiXzc1xEEIF-38" vertex="1">
          <mxGeometry y="40" width="488" height="109" as="geometry" />
        </mxCell>
        <mxCell id="MC8U4YQa0FiXzc1xEEIF-45" value="&lt;div&gt;In 1&lt;/div&gt;&lt;div&gt;Out 5&lt;/div&gt;&lt;div&gt;Weight -0.8&lt;/div&gt;&lt;div&gt;Enabled&lt;/div&gt;&lt;div&gt;Innov 1&lt;/div&gt;" style="shape=partialRectangle;html=1;whiteSpace=wrap;connectable=0;strokeColor=inherit;overflow=hidden;fillColor=#f5f5f5;top=0;left=0;bottom=0;right=0;pointerEvents=1;fontSize=16;fontColor=#333333;" parent="MC8U4YQa0FiXzc1xEEIF-44" vertex="1">
          <mxGeometry width="98" height="109" as="geometry">
            <mxRectangle width="98" height="109" as="alternateBounds" />
          </mxGeometry>
        </mxCell>
        <mxCell id="MC8U4YQa0FiXzc1xEEIF-46" value="&lt;div&gt;In 2&lt;/div&gt;&lt;div&gt;Out 4&lt;/div&gt;&lt;div&gt;Weight 1.2&lt;/div&gt;&lt;div&gt;Enabled&lt;/div&gt;&lt;div&gt;Innov 2&lt;/div&gt;" style="shape=partialRectangle;html=1;whiteSpace=wrap;connectable=0;strokeColor=inherit;overflow=hidden;fillColor=#f5f5f5;top=0;left=0;bottom=0;right=0;pointerEvents=1;fontSize=16;fontColor=#333333;" parent="MC8U4YQa0FiXzc1xEEIF-44" vertex="1">
          <mxGeometry x="98" width="98" height="109" as="geometry">
            <mxRectangle width="98" height="109" as="alternateBounds" />
          </mxGeometry>
        </mxCell>
        <mxCell id="MC8U4YQa0FiXzc1xEEIF-47" value="&lt;div&gt;In 3&lt;/div&gt;&lt;div&gt;Out 4&lt;/div&gt;&lt;div&gt;Weight 1.8&lt;/div&gt;&lt;div&gt;Enabled&lt;/div&gt;&lt;div&gt;Innov 3&lt;/div&gt;" style="shape=partialRectangle;html=1;whiteSpace=wrap;connectable=0;strokeColor=inherit;overflow=hidden;fillColor=#f5f5f5;top=0;left=0;bottom=0;right=0;pointerEvents=1;fontSize=16;fontColor=#333333;" parent="MC8U4YQa0FiXzc1xEEIF-44" vertex="1">
          <mxGeometry x="196" width="96" height="109" as="geometry">
            <mxRectangle width="96" height="109" as="alternateBounds" />
          </mxGeometry>
        </mxCell>
        <mxCell id="MC8U4YQa0FiXzc1xEEIF-48" value="&lt;div&gt;In 4&lt;/div&gt;&lt;div&gt;Out 5&lt;/div&gt;&lt;div&gt;Weight -1.4&lt;/div&gt;&lt;div&gt;Enabled&lt;/div&gt;&lt;div&gt;Innov 4&lt;/div&gt;" style="shape=partialRectangle;html=1;whiteSpace=wrap;connectable=0;strokeColor=inherit;overflow=hidden;fillColor=#f5f5f5;top=0;left=0;bottom=0;right=0;pointerEvents=1;fontSize=16;fontColor=#333333;" parent="MC8U4YQa0FiXzc1xEEIF-44" vertex="1">
          <mxGeometry x="292" width="98" height="109" as="geometry">
            <mxRectangle width="98" height="109" as="alternateBounds" />
          </mxGeometry>
        </mxCell>
        <mxCell id="MC8U4YQa0FiXzc1xEEIF-50" value="&lt;div&gt;In 3&lt;/div&gt;&lt;div&gt;Out 5&lt;/div&gt;&lt;div&gt;Weight 0&lt;/div&gt;&lt;div&gt;Disabled&lt;/div&gt;&lt;div&gt;Innov 5&lt;/div&gt;" style="shape=partialRectangle;html=1;whiteSpace=wrap;connectable=0;strokeColor=inherit;overflow=hidden;fillColor=#f5f5f5;top=0;left=0;bottom=0;right=0;pointerEvents=1;fontSize=16;fontColor=#333333;" parent="MC8U4YQa0FiXzc1xEEIF-44" vertex="1">
          <mxGeometry x="390" width="98" height="109" as="geometry">
            <mxRectangle width="98" height="109" as="alternateBounds" />
          </mxGeometry>
        </mxCell>
        <mxCell id="MC8U4YQa0FiXzc1xEEIF-51" value="" style="endArrow=classic;html=1;rounded=0;exitX=0.5;exitY=0;exitDx=0;exitDy=0;entryX=1;entryY=1;entryDx=0;entryDy=0;dashed=1;fillColor=#f5f5f5;strokeColor=#666666;dashPattern=8 8;" parent="1" source="MC8U4YQa0FiXzc1xEEIF-11" target="MC8U4YQa0FiXzc1xEEIF-8" edge="1">
          <mxGeometry width="50" height="50" relative="1" as="geometry">
            <mxPoint x="-100" y="-140" as="sourcePoint" />
            <mxPoint x="-50" y="-190" as="targetPoint" />
          </mxGeometry>
        </mxCell>
        <mxCell id="MC8U4YQa0FiXzc1xEEIF-55" value="Neural Network (Phenotype)" style="text;html=1;align=center;verticalAlign=middle;whiteSpace=wrap;rounded=0;fontSize=16;fontStyle=1" parent="1" vertex="1">
          <mxGeometry x="-260" y="-375" width="140" height="40" as="geometry" />
        </mxCell>
        <mxCell id="MC8U4YQa0FiXzc1xEEIF-56" value="" style="endArrow=classic;startArrow=classic;html=1;rounded=0;strokeWidth=3;" parent="1" edge="1">
          <mxGeometry width="50" height="50" relative="1" as="geometry">
            <mxPoint x="-380" y="-136.52999999999997" as="sourcePoint" />
            <mxPoint x="-270" y="-136" as="targetPoint" />
          </mxGeometry>
        </mxCell>
        <mxCell id="MC8U4YQa0FiXzc1xEEIF-59" value="1" style="ellipse;whiteSpace=wrap;html=1;fontSize=16;fillColor=#f8cecc;strokeColor=#b85450;" parent="1" vertex="1">
          <mxGeometry x="-240" y="-71" width="60" height="60" as="geometry" />
        </mxCell>
        <mxCell id="MC8U4YQa0FiXzc1xEEIF-60" value="" style="endArrow=classic;html=1;rounded=0;entryX=0.5;entryY=1;entryDx=0;entryDy=0;" parent="1" target="MC8U4YQa0FiXzc1xEEIF-59" edge="1">
          <mxGeometry width="50" height="50" relative="1" as="geometry">
            <mxPoint x="-210.53" y="40" as="sourcePoint" />
            <mxPoint x="-210.53" y="-11" as="targetPoint" />
          </mxGeometry>
        </mxCell>
        <mxCell id="MC8U4YQa0FiXzc1xEEIF-61" value="Input 1" style="text;html=1;align=center;verticalAlign=middle;whiteSpace=wrap;rounded=0;fontSize=16;" parent="1" vertex="1">
          <mxGeometry x="-240" y="40" width="60" height="30" as="geometry" />
        </mxCell>
        <mxCell id="MC8U4YQa0FiXzc1xEEIF-62" value="" style="endArrow=classic;html=1;rounded=0;entryX=0;entryY=1;entryDx=0;entryDy=0;exitX=0.5;exitY=0;exitDx=0;exitDy=0;" parent="1" source="MC8U4YQa0FiXzc1xEEIF-59" target="MC8U4YQa0FiXzc1xEEIF-8" edge="1">
          <mxGeometry width="50" height="50" relative="1" as="geometry">
            <mxPoint x="-88" y="-61" as="sourcePoint" />
            <mxPoint x="-49" y="-218" as="targetPoint" />
          </mxGeometry>
        </mxCell>
        <mxCell id="Fa6GfZsPcnkaOSwE8bsE-1" value="" style="rounded=0;whiteSpace=wrap;html=1;fillColor=none;" vertex="1" parent="1">
          <mxGeometry x="-250" y="240" width="330" height="450" as="geometry" />
        </mxCell>
        <mxCell id="Fa6GfZsPcnkaOSwE8bsE-2" style="edgeStyle=none;curved=1;rounded=0;orthogonalLoop=1;jettySize=auto;html=1;entryX=1;entryY=0.5;entryDx=0;entryDy=0;fontSize=16;startSize=8;endSize=8;" edge="1" parent="1">
          <mxGeometry relative="1" as="geometry">
            <mxPoint x="-106" y="678" as="sourcePoint" />
            <mxPoint x="-106" y="678" as="targetPoint" />
          </mxGeometry>
        </mxCell>
        <mxCell id="Fa6GfZsPcnkaOSwE8bsE-3" value="4" style="ellipse;whiteSpace=wrap;html=1;fontSize=16;fillColor=#f8cecc;strokeColor=#b85450;" vertex="1" parent="1">
          <mxGeometry x="-118" y="454" width="60" height="60" as="geometry" />
        </mxCell>
        <mxCell id="Fa6GfZsPcnkaOSwE8bsE-4" value="2" style="ellipse;whiteSpace=wrap;html=1;fontSize=16;fillColor=#f8cecc;strokeColor=#b85450;" vertex="1" parent="1">
          <mxGeometry x="-118" y="549" width="60" height="60" as="geometry" />
        </mxCell>
        <mxCell id="Fa6GfZsPcnkaOSwE8bsE-5" value="5" style="ellipse;whiteSpace=wrap;html=1;fontSize=16;fillColor=#f8cecc;strokeColor=#b85450;" vertex="1" parent="1">
          <mxGeometry x="-58" y="341" width="60" height="60" as="geometry" />
        </mxCell>
        <mxCell id="Fa6GfZsPcnkaOSwE8bsE-6" value="3" style="ellipse;whiteSpace=wrap;html=1;fontSize=16;fillColor=#f8cecc;strokeColor=#b85450;" vertex="1" parent="1">
          <mxGeometry x="2" y="549" width="60" height="60" as="geometry" />
        </mxCell>
        <mxCell id="Fa6GfZsPcnkaOSwE8bsE-7" value="" style="endArrow=classic;html=1;rounded=0;entryX=0.5;entryY=1;entryDx=0;entryDy=0;" edge="1" target="Fa6GfZsPcnkaOSwE8bsE-4" parent="1">
          <mxGeometry width="50" height="50" relative="1" as="geometry">
            <mxPoint x="-88" y="660" as="sourcePoint" />
            <mxPoint x="-70" y="660" as="targetPoint" />
          </mxGeometry>
        </mxCell>
        <mxCell id="Fa6GfZsPcnkaOSwE8bsE-8" value="" style="endArrow=classic;html=1;rounded=0;entryX=0.5;entryY=1;entryDx=0;entryDy=0;exitX=0.5;exitY=0;exitDx=0;exitDy=0;" edge="1" source="Fa6GfZsPcnkaOSwE8bsE-4" target="Fa6GfZsPcnkaOSwE8bsE-3" parent="1">
          <mxGeometry width="50" height="50" relative="1" as="geometry">
            <mxPoint x="-84" y="670" as="sourcePoint" />
            <mxPoint x="-84" y="619" as="targetPoint" />
          </mxGeometry>
        </mxCell>
        <mxCell id="Fa6GfZsPcnkaOSwE8bsE-10" value="" style="endArrow=classic;html=1;rounded=0;entryX=0;entryY=1;entryDx=0;entryDy=0;exitX=0.5;exitY=0;exitDx=0;exitDy=0;" edge="1" source="Fa6GfZsPcnkaOSwE8bsE-3" target="Fa6GfZsPcnkaOSwE8bsE-5" parent="1">
          <mxGeometry width="50" height="50" relative="1" as="geometry">
            <mxPoint x="-84" y="559" as="sourcePoint" />
            <mxPoint x="-48" y="515" as="targetPoint" />
          </mxGeometry>
        </mxCell>
        <mxCell id="Fa6GfZsPcnkaOSwE8bsE-11" value="" style="endArrow=classic;html=1;rounded=0;exitX=0.5;exitY=0;exitDx=0;exitDy=0;" edge="1" source="Fa6GfZsPcnkaOSwE8bsE-5" parent="1">
          <mxGeometry width="50" height="50" relative="1" as="geometry">
            <mxPoint x="-37.5" y="341" as="sourcePoint" />
            <mxPoint x="-28" y="290" as="targetPoint" />
          </mxGeometry>
        </mxCell>
        <mxCell id="Fa6GfZsPcnkaOSwE8bsE-12" value="" style="rounded=0;whiteSpace=wrap;html=1;fillColor=none;" vertex="1" parent="1">
          <mxGeometry x="-910" y="290" width="530" height="350" as="geometry" />
        </mxCell>
        <mxCell id="Fa6GfZsPcnkaOSwE8bsE-13" value="" style="endArrow=classic;html=1;rounded=0;entryX=0.5;entryY=1;entryDx=0;entryDy=0;exitX=0.5;exitY=0;exitDx=0;exitDy=0;" edge="1" source="Fa6GfZsPcnkaOSwE8bsE-15" target="Fa6GfZsPcnkaOSwE8bsE-6" parent="1">
          <mxGeometry width="50" height="50" relative="1" as="geometry">
            <mxPoint x="31.599999999999994" y="660" as="sourcePoint" />
            <mxPoint x="31.599999999999994" y="609" as="targetPoint" />
          </mxGeometry>
        </mxCell>
        <mxCell id="Fa6GfZsPcnkaOSwE8bsE-14" value="Input 2" style="text;html=1;align=center;verticalAlign=middle;whiteSpace=wrap;rounded=0;fontSize=16;" vertex="1" parent="1">
          <mxGeometry x="-118" y="660" width="60" height="30" as="geometry" />
        </mxCell>
        <mxCell id="Fa6GfZsPcnkaOSwE8bsE-15" value="Input 3" style="text;html=1;align=center;verticalAlign=middle;whiteSpace=wrap;rounded=0;fontSize=16;" vertex="1" parent="1">
          <mxGeometry x="2" y="660" width="60" height="30" as="geometry" />
        </mxCell>
        <mxCell id="Fa6GfZsPcnkaOSwE8bsE-16" value="Output" style="text;html=1;align=center;verticalAlign=middle;whiteSpace=wrap;rounded=0;fontSize=16;" vertex="1" parent="1">
          <mxGeometry x="-58" y="250" width="60" height="30" as="geometry" />
        </mxCell>
        <mxCell id="Fa6GfZsPcnkaOSwE8bsE-17" value="Genome (Genotype)" style="text;html=1;align=center;verticalAlign=middle;whiteSpace=wrap;rounded=0;fontSize=16;fontStyle=1" vertex="1" parent="1">
          <mxGeometry x="-910" y="300" width="100" height="30" as="geometry" />
        </mxCell>
        <mxCell id="Fa6GfZsPcnkaOSwE8bsE-31" value="" style="shape=table;startSize=0;container=1;collapsible=0;childLayout=tableLayout;strokeWidth=2;swimlaneFillColor=none;" vertex="1" parent="1">
          <mxGeometry x="-890" y="470" width="488" height="149" as="geometry" />
        </mxCell>
        <mxCell id="Fa6GfZsPcnkaOSwE8bsE-32" value="" style="shape=tableRow;horizontal=0;startSize=0;swimlaneHead=0;swimlaneBody=0;strokeColor=inherit;top=0;left=0;bottom=0;right=0;collapsible=0;dropTarget=0;fillColor=none;points=[[0,0.5],[1,0.5]];portConstraint=eastwest;" vertex="1" parent="Fa6GfZsPcnkaOSwE8bsE-31">
          <mxGeometry width="488" height="40" as="geometry" />
        </mxCell>
        <mxCell id="Fa6GfZsPcnkaOSwE8bsE-33" value="Connection Gene" style="shape=partialRectangle;html=1;whiteSpace=wrap;connectable=0;strokeColor=inherit;overflow=hidden;fillColor=#f8cecc;top=0;left=0;bottom=0;right=0;pointerEvents=1;fontSize=16;rowspan=1;colspan=5;" vertex="1" parent="Fa6GfZsPcnkaOSwE8bsE-32">
          <mxGeometry width="488" height="40" as="geometry">
            <mxRectangle width="98" height="40" as="alternateBounds" />
          </mxGeometry>
        </mxCell>
        <mxCell id="Fa6GfZsPcnkaOSwE8bsE-34" value="" style="shape=partialRectangle;html=1;whiteSpace=wrap;connectable=0;strokeColor=inherit;overflow=hidden;fillColor=none;top=0;left=0;bottom=0;right=0;pointerEvents=1;" vertex="1" visible="0" parent="Fa6GfZsPcnkaOSwE8bsE-32">
          <mxGeometry x="98" width="98" height="40" as="geometry">
            <mxRectangle width="98" height="40" as="alternateBounds" />
          </mxGeometry>
        </mxCell>
        <mxCell id="Fa6GfZsPcnkaOSwE8bsE-35" value="" style="shape=partialRectangle;html=1;whiteSpace=wrap;connectable=0;strokeColor=inherit;overflow=hidden;fillColor=none;top=0;left=0;bottom=0;right=0;pointerEvents=1;" vertex="1" visible="0" parent="Fa6GfZsPcnkaOSwE8bsE-32">
          <mxGeometry x="196" width="96" height="40" as="geometry">
            <mxRectangle width="96" height="40" as="alternateBounds" />
          </mxGeometry>
        </mxCell>
        <mxCell id="Fa6GfZsPcnkaOSwE8bsE-36" value="" style="shape=partialRectangle;html=1;whiteSpace=wrap;connectable=0;strokeColor=inherit;overflow=hidden;fillColor=none;top=0;left=0;bottom=0;right=0;pointerEvents=1;" vertex="1" visible="0" parent="Fa6GfZsPcnkaOSwE8bsE-32">
          <mxGeometry x="292" width="98" height="40" as="geometry">
            <mxRectangle width="98" height="40" as="alternateBounds" />
          </mxGeometry>
        </mxCell>
        <mxCell id="Fa6GfZsPcnkaOSwE8bsE-37" style="shape=partialRectangle;html=1;whiteSpace=wrap;connectable=0;strokeColor=inherit;overflow=hidden;fillColor=none;top=0;left=0;bottom=0;right=0;pointerEvents=1;" vertex="1" visible="0" parent="Fa6GfZsPcnkaOSwE8bsE-32">
          <mxGeometry x="390" width="98" height="40" as="geometry">
            <mxRectangle width="98" height="40" as="alternateBounds" />
          </mxGeometry>
        </mxCell>
        <mxCell id="Fa6GfZsPcnkaOSwE8bsE-38" value="" style="shape=tableRow;horizontal=0;startSize=0;swimlaneHead=0;swimlaneBody=0;strokeColor=inherit;top=0;left=0;bottom=0;right=0;collapsible=0;dropTarget=0;fillColor=none;points=[[0,0.5],[1,0.5]];portConstraint=eastwest;" vertex="1" parent="Fa6GfZsPcnkaOSwE8bsE-31">
          <mxGeometry y="40" width="488" height="109" as="geometry" />
        </mxCell>
        <mxCell id="Fa6GfZsPcnkaOSwE8bsE-39" value="&lt;div&gt;In 2&lt;/div&gt;&lt;div&gt;Out 4&lt;/div&gt;&lt;div&gt;Weight 1.2&lt;/div&gt;&lt;div&gt;Enabled&lt;/div&gt;&lt;div&gt;Innov 2&lt;/div&gt;" style="shape=partialRectangle;html=1;whiteSpace=wrap;connectable=0;strokeColor=inherit;overflow=hidden;fillColor=#f5f5f5;top=0;left=0;bottom=0;right=0;pointerEvents=1;fontSize=16;fontColor=#333333;" vertex="1" parent="Fa6GfZsPcnkaOSwE8bsE-38">
          <mxGeometry width="98" height="109" as="geometry">
            <mxRectangle width="98" height="109" as="alternateBounds" />
          </mxGeometry>
        </mxCell>
        <mxCell id="Fa6GfZsPcnkaOSwE8bsE-40" value="&lt;div&gt;In 4&lt;/div&gt;&lt;div&gt;Out 5&lt;/div&gt;&lt;div&gt;Weight -1.4&lt;/div&gt;&lt;div&gt;Enabled&lt;/div&gt;&lt;div&gt;Innov 4&lt;/div&gt;" style="shape=partialRectangle;html=1;whiteSpace=wrap;connectable=0;strokeColor=inherit;overflow=hidden;fillColor=#f5f5f5;top=0;left=0;bottom=0;right=0;pointerEvents=1;fontSize=16;fontColor=#333333;" vertex="1" parent="Fa6GfZsPcnkaOSwE8bsE-38">
          <mxGeometry x="98" width="98" height="109" as="geometry">
            <mxRectangle width="98" height="109" as="alternateBounds" />
          </mxGeometry>
        </mxCell>
        <mxCell id="Fa6GfZsPcnkaOSwE8bsE-41" value="&lt;div&gt;In 1&lt;/div&gt;&lt;div&gt;Out 4&lt;/div&gt;&lt;div&gt;Weight 0.6&lt;/div&gt;&lt;div&gt;Enabled&lt;/div&gt;&lt;div&gt;Innov 6&lt;/div&gt;" style="shape=partialRectangle;html=1;whiteSpace=wrap;connectable=0;strokeColor=inherit;overflow=hidden;fillColor=#f5f5f5;top=0;left=0;bottom=0;right=0;pointerEvents=1;fontSize=16;fontColor=#333333;" vertex="1" parent="Fa6GfZsPcnkaOSwE8bsE-38">
          <mxGeometry x="196" width="96" height="109" as="geometry">
            <mxRectangle width="96" height="109" as="alternateBounds" />
          </mxGeometry>
        </mxCell>
        <mxCell id="Fa6GfZsPcnkaOSwE8bsE-42" value="&lt;div&gt;In 3&lt;/div&gt;&lt;div&gt;Out 6&lt;/div&gt;&lt;div&gt;Weight -1.2&lt;/div&gt;&lt;div&gt;Enabled&lt;/div&gt;&lt;div&gt;Innov 7&lt;/div&gt;" style="shape=partialRectangle;html=1;whiteSpace=wrap;connectable=0;strokeColor=inherit;overflow=hidden;fillColor=#f5f5f5;top=0;left=0;bottom=0;right=0;pointerEvents=1;fontSize=16;fontColor=#333333;" vertex="1" parent="Fa6GfZsPcnkaOSwE8bsE-38">
          <mxGeometry x="292" width="98" height="109" as="geometry">
            <mxRectangle width="98" height="109" as="alternateBounds" />
          </mxGeometry>
        </mxCell>
        <mxCell id="Fa6GfZsPcnkaOSwE8bsE-43" value="&lt;div&gt;In 6&lt;/div&gt;&lt;div&gt;Out 5&lt;/div&gt;&lt;div&gt;Weight 0.3&lt;/div&gt;&lt;div&gt;Enabled&lt;/div&gt;&lt;div&gt;Innov 8&lt;/div&gt;" style="shape=partialRectangle;html=1;whiteSpace=wrap;connectable=0;strokeColor=inherit;overflow=hidden;fillColor=#f5f5f5;top=0;left=0;bottom=0;right=0;pointerEvents=1;fontSize=16;fontColor=#333333;" vertex="1" parent="Fa6GfZsPcnkaOSwE8bsE-38">
          <mxGeometry x="390" width="98" height="109" as="geometry">
            <mxRectangle width="98" height="109" as="alternateBounds" />
          </mxGeometry>
        </mxCell>
        <mxCell id="Fa6GfZsPcnkaOSwE8bsE-45" value="Neural Network (Phenotype)" style="text;html=1;align=center;verticalAlign=middle;whiteSpace=wrap;rounded=0;fontSize=16;fontStyle=1" vertex="1" parent="1">
          <mxGeometry x="-250" y="245" width="140" height="40" as="geometry" />
        </mxCell>
        <mxCell id="Fa6GfZsPcnkaOSwE8bsE-46" value="" style="endArrow=classic;startArrow=classic;html=1;rounded=0;strokeWidth=3;" edge="1" parent="1">
          <mxGeometry width="50" height="50" relative="1" as="geometry">
            <mxPoint x="-370" y="483.47" as="sourcePoint" />
            <mxPoint x="-260" y="484" as="targetPoint" />
          </mxGeometry>
        </mxCell>
        <mxCell id="Fa6GfZsPcnkaOSwE8bsE-47" value="1" style="ellipse;whiteSpace=wrap;html=1;fontSize=16;fillColor=#f8cecc;strokeColor=#b85450;" vertex="1" parent="1">
          <mxGeometry x="-230" y="549" width="60" height="60" as="geometry" />
        </mxCell>
        <mxCell id="Fa6GfZsPcnkaOSwE8bsE-48" value="" style="endArrow=classic;html=1;rounded=0;entryX=0.5;entryY=1;entryDx=0;entryDy=0;" edge="1" target="Fa6GfZsPcnkaOSwE8bsE-47" parent="1">
          <mxGeometry width="50" height="50" relative="1" as="geometry">
            <mxPoint x="-200.53" y="660" as="sourcePoint" />
            <mxPoint x="-200.53" y="609" as="targetPoint" />
          </mxGeometry>
        </mxCell>
        <mxCell id="Fa6GfZsPcnkaOSwE8bsE-49" value="Input 1" style="text;html=1;align=center;verticalAlign=middle;whiteSpace=wrap;rounded=0;fontSize=16;" vertex="1" parent="1">
          <mxGeometry x="-230" y="660" width="60" height="30" as="geometry" />
        </mxCell>
        <mxCell id="Fa6GfZsPcnkaOSwE8bsE-50" value="" style="endArrow=classic;html=1;rounded=0;entryX=0;entryY=1;entryDx=0;entryDy=0;exitX=0.5;exitY=0;exitDx=0;exitDy=0;" edge="1" source="Fa6GfZsPcnkaOSwE8bsE-47" target="Fa6GfZsPcnkaOSwE8bsE-3" parent="1">
          <mxGeometry width="50" height="50" relative="1" as="geometry">
            <mxPoint x="-78" y="559" as="sourcePoint" />
            <mxPoint x="-39" y="402" as="targetPoint" />
          </mxGeometry>
        </mxCell>
        <mxCell id="Fa6GfZsPcnkaOSwE8bsE-53" value="6" style="ellipse;whiteSpace=wrap;html=1;fontSize=16;fillColor=#f8cecc;strokeColor=#b85450;" vertex="1" parent="1">
          <mxGeometry x="2" y="454" width="60" height="60" as="geometry" />
        </mxCell>
        <mxCell id="Fa6GfZsPcnkaOSwE8bsE-54" value="" style="endArrow=classic;html=1;rounded=0;entryX=0.5;entryY=1;entryDx=0;entryDy=0;exitX=0.5;exitY=0;exitDx=0;exitDy=0;" edge="1" parent="1" source="Fa6GfZsPcnkaOSwE8bsE-6" target="Fa6GfZsPcnkaOSwE8bsE-53">
          <mxGeometry width="50" height="50" relative="1" as="geometry">
            <mxPoint x="42" y="559" as="sourcePoint" />
            <mxPoint x="-57" y="515" as="targetPoint" />
          </mxGeometry>
        </mxCell>
        <mxCell id="Fa6GfZsPcnkaOSwE8bsE-55" value="" style="endArrow=classic;html=1;rounded=0;entryX=1;entryY=1;entryDx=0;entryDy=0;exitX=0.5;exitY=0;exitDx=0;exitDy=0;" edge="1" parent="1" source="Fa6GfZsPcnkaOSwE8bsE-53" target="Fa6GfZsPcnkaOSwE8bsE-5">
          <mxGeometry width="50" height="50" relative="1" as="geometry">
            <mxPoint x="42" y="559" as="sourcePoint" />
            <mxPoint x="42" y="524" as="targetPoint" />
          </mxGeometry>
        </mxCell>
        <mxCell id="Fa6GfZsPcnkaOSwE8bsE-56" value="" style="shape=table;startSize=0;container=1;collapsible=0;childLayout=tableLayout;strokeWidth=2;swimlaneFillColor=none;" vertex="1" parent="1">
          <mxGeometry x="-890" y="360" width="480" height="85" as="geometry" />
        </mxCell>
        <mxCell id="Fa6GfZsPcnkaOSwE8bsE-57" value="" style="shape=tableRow;horizontal=0;startSize=0;swimlaneHead=0;swimlaneBody=0;strokeColor=inherit;top=0;left=0;bottom=0;right=0;collapsible=0;dropTarget=0;fillColor=none;points=[[0,0.5],[1,0.5]];portConstraint=eastwest;" vertex="1" parent="Fa6GfZsPcnkaOSwE8bsE-56">
          <mxGeometry width="480" height="40" as="geometry" />
        </mxCell>
        <mxCell id="Fa6GfZsPcnkaOSwE8bsE-58" value="Node Gene" style="shape=partialRectangle;html=1;whiteSpace=wrap;connectable=0;strokeColor=inherit;overflow=hidden;fillColor=#f8cecc;top=0;left=0;bottom=0;right=0;pointerEvents=1;fontSize=16;rowspan=1;colspan=6;" vertex="1" parent="Fa6GfZsPcnkaOSwE8bsE-57">
          <mxGeometry width="480" height="40" as="geometry">
            <mxRectangle width="80" height="40" as="alternateBounds" />
          </mxGeometry>
        </mxCell>
        <mxCell id="Fa6GfZsPcnkaOSwE8bsE-59" style="shape=partialRectangle;html=1;whiteSpace=wrap;connectable=0;strokeColor=inherit;overflow=hidden;fillColor=#f8cecc;top=0;left=0;bottom=0;right=0;pointerEvents=1;fontSize=16;" vertex="1" visible="0" parent="Fa6GfZsPcnkaOSwE8bsE-57">
          <mxGeometry x="80" width="80" height="40" as="geometry">
            <mxRectangle width="80" height="40" as="alternateBounds" />
          </mxGeometry>
        </mxCell>
        <mxCell id="Fa6GfZsPcnkaOSwE8bsE-60" value="" style="shape=partialRectangle;html=1;whiteSpace=wrap;connectable=0;strokeColor=inherit;overflow=hidden;fillColor=none;top=0;left=0;bottom=0;right=0;pointerEvents=1;" vertex="1" visible="0" parent="Fa6GfZsPcnkaOSwE8bsE-57">
          <mxGeometry x="160" width="80" height="40" as="geometry">
            <mxRectangle width="80" height="40" as="alternateBounds" />
          </mxGeometry>
        </mxCell>
        <mxCell id="Fa6GfZsPcnkaOSwE8bsE-61" value="" style="shape=partialRectangle;html=1;whiteSpace=wrap;connectable=0;strokeColor=inherit;overflow=hidden;fillColor=none;top=0;left=0;bottom=0;right=0;pointerEvents=1;" vertex="1" visible="0" parent="Fa6GfZsPcnkaOSwE8bsE-57">
          <mxGeometry x="240" width="80" height="40" as="geometry">
            <mxRectangle width="80" height="40" as="alternateBounds" />
          </mxGeometry>
        </mxCell>
        <mxCell id="Fa6GfZsPcnkaOSwE8bsE-62" value="" style="shape=partialRectangle;html=1;whiteSpace=wrap;connectable=0;strokeColor=inherit;overflow=hidden;fillColor=none;top=0;left=0;bottom=0;right=0;pointerEvents=1;" vertex="1" visible="0" parent="Fa6GfZsPcnkaOSwE8bsE-57">
          <mxGeometry x="320" width="80" height="40" as="geometry">
            <mxRectangle width="80" height="40" as="alternateBounds" />
          </mxGeometry>
        </mxCell>
        <mxCell id="Fa6GfZsPcnkaOSwE8bsE-63" style="shape=partialRectangle;html=1;whiteSpace=wrap;connectable=0;strokeColor=inherit;overflow=hidden;fillColor=none;top=0;left=0;bottom=0;right=0;pointerEvents=1;" vertex="1" visible="0" parent="Fa6GfZsPcnkaOSwE8bsE-57">
          <mxGeometry x="400" width="80" height="40" as="geometry">
            <mxRectangle width="80" height="40" as="alternateBounds" />
          </mxGeometry>
        </mxCell>
        <mxCell id="Fa6GfZsPcnkaOSwE8bsE-64" value="" style="shape=tableRow;horizontal=0;startSize=0;swimlaneHead=0;swimlaneBody=0;strokeColor=inherit;top=0;left=0;bottom=0;right=0;collapsible=0;dropTarget=0;fillColor=none;points=[[0,0.5],[1,0.5]];portConstraint=eastwest;" vertex="1" parent="Fa6GfZsPcnkaOSwE8bsE-56">
          <mxGeometry y="40" width="480" height="45" as="geometry" />
        </mxCell>
        <mxCell id="Fa6GfZsPcnkaOSwE8bsE-65" value="&lt;div&gt;Node 1&lt;/div&gt;&lt;div&gt;Input&lt;/div&gt;" style="shape=partialRectangle;html=1;whiteSpace=wrap;connectable=0;strokeColor=inherit;overflow=hidden;fillColor=#f5f5f5;top=0;left=0;bottom=0;right=0;pointerEvents=1;fontSize=16;fontColor=#333333;" vertex="1" parent="Fa6GfZsPcnkaOSwE8bsE-64">
          <mxGeometry width="80" height="45" as="geometry">
            <mxRectangle width="80" height="45" as="alternateBounds" />
          </mxGeometry>
        </mxCell>
        <mxCell id="Fa6GfZsPcnkaOSwE8bsE-66" value="&lt;div&gt;Node 2&lt;/div&gt;&lt;div&gt;Input&lt;/div&gt;" style="shape=partialRectangle;html=1;whiteSpace=wrap;connectable=0;strokeColor=inherit;overflow=hidden;fillColor=#f5f5f5;top=0;left=0;bottom=0;right=0;pointerEvents=1;fontSize=16;fontColor=#333333;" vertex="1" parent="Fa6GfZsPcnkaOSwE8bsE-64">
          <mxGeometry x="80" width="80" height="45" as="geometry">
            <mxRectangle width="80" height="45" as="alternateBounds" />
          </mxGeometry>
        </mxCell>
        <mxCell id="Fa6GfZsPcnkaOSwE8bsE-67" value="&lt;div&gt;Node 3&lt;/div&gt;&lt;div&gt;Input&lt;/div&gt;" style="shape=partialRectangle;html=1;whiteSpace=wrap;connectable=0;strokeColor=inherit;overflow=hidden;fillColor=#f5f5f5;top=0;left=0;bottom=0;right=0;pointerEvents=1;fontSize=16;fontColor=#333333;" vertex="1" parent="Fa6GfZsPcnkaOSwE8bsE-64">
          <mxGeometry x="160" width="80" height="45" as="geometry">
            <mxRectangle width="80" height="45" as="alternateBounds" />
          </mxGeometry>
        </mxCell>
        <mxCell id="Fa6GfZsPcnkaOSwE8bsE-68" value="&lt;div&gt;Node 4&lt;/div&gt;&lt;div&gt;Hidden&lt;/div&gt;" style="shape=partialRectangle;html=1;whiteSpace=wrap;connectable=0;strokeColor=inherit;overflow=hidden;fillColor=#f5f5f5;top=0;left=0;bottom=0;right=0;pointerEvents=1;fontSize=16;fontColor=#333333;" vertex="1" parent="Fa6GfZsPcnkaOSwE8bsE-64">
          <mxGeometry x="240" width="80" height="45" as="geometry">
            <mxRectangle width="80" height="45" as="alternateBounds" />
          </mxGeometry>
        </mxCell>
        <mxCell id="Fa6GfZsPcnkaOSwE8bsE-69" value="&lt;div&gt;Node 5&lt;/div&gt;&lt;div&gt;Output&lt;/div&gt;" style="shape=partialRectangle;html=1;whiteSpace=wrap;connectable=0;strokeColor=inherit;overflow=hidden;fillColor=#f5f5f5;top=0;left=0;bottom=0;right=0;pointerEvents=1;fontSize=16;fontColor=#333333;" vertex="1" parent="Fa6GfZsPcnkaOSwE8bsE-64">
          <mxGeometry x="320" width="80" height="45" as="geometry">
            <mxRectangle width="80" height="45" as="alternateBounds" />
          </mxGeometry>
        </mxCell>
        <mxCell id="Fa6GfZsPcnkaOSwE8bsE-70" value="&lt;div&gt;Node 6&lt;/div&gt;&lt;div&gt;Hidden&lt;/div&gt;" style="shape=partialRectangle;html=1;whiteSpace=wrap;connectable=0;strokeColor=inherit;overflow=hidden;fillColor=#f5f5f5;top=0;left=0;bottom=0;right=0;pointerEvents=1;fontSize=16;fontColor=#333333;" vertex="1" parent="Fa6GfZsPcnkaOSwE8bsE-64">
          <mxGeometry x="400" width="80" height="45" as="geometry">
            <mxRectangle width="80" height="45" as="alternateBounds" />
          </mxGeometry>
        </mxCell>
        <mxCell id="Fa6GfZsPcnkaOSwE8bsE-73" value="" style="whiteSpace=wrap;html=1;aspect=fixed;fillColor=none;strokeColor=none;" vertex="1" parent="1">
          <mxGeometry x="-420" y="110" width="85" height="85" as="geometry" />
        </mxCell>
        <mxCell id="Fa6GfZsPcnkaOSwE8bsE-74" value="" style="endArrow=none;html=1;rounded=0;entryX=1;entryY=0;entryDx=0;entryDy=0;exitX=0;exitY=1;exitDx=0;exitDy=0;strokeWidth=3;" edge="1" parent="1" source="Fa6GfZsPcnkaOSwE8bsE-73" target="Fa6GfZsPcnkaOSwE8bsE-73">
          <mxGeometry width="50" height="50" relative="1" as="geometry">
            <mxPoint x="-1120" y="330" as="sourcePoint" />
            <mxPoint x="-1070" y="280" as="targetPoint" />
          </mxGeometry>
        </mxCell>
        <mxCell id="Fa6GfZsPcnkaOSwE8bsE-75" value="&lt;font style=&quot;font-size: 16px;&quot;&gt;&lt;b&gt;&lt;u&gt;Parent 1&lt;/u&gt;&lt;/b&gt;&lt;/font&gt;" style="text;html=1;align=center;verticalAlign=middle;whiteSpace=wrap;rounded=0;" vertex="1" parent="1">
          <mxGeometry x="-950" y="-400" width="100" height="30" as="geometry" />
        </mxCell>
        <mxCell id="Fa6GfZsPcnkaOSwE8bsE-78" value="&lt;font style=&quot;font-size: 16px;&quot;&gt;&lt;b&gt;&lt;u&gt;Parent 2&lt;/u&gt;&lt;/b&gt;&lt;/font&gt;" style="text;html=1;align=center;verticalAlign=middle;whiteSpace=wrap;rounded=0;" vertex="1" parent="1">
          <mxGeometry x="-950" y="220" width="100" height="30" as="geometry" />
        </mxCell>
        <mxCell id="Fa6GfZsPcnkaOSwE8bsE-80" value="" style="endArrow=none;html=1;rounded=0;entryX=0;entryY=0;entryDx=0;entryDy=0;exitX=1;exitY=1;exitDx=0;exitDy=0;strokeWidth=3;" edge="1" parent="1" source="Fa6GfZsPcnkaOSwE8bsE-73" target="Fa6GfZsPcnkaOSwE8bsE-73">
          <mxGeometry width="50" height="50" relative="1" as="geometry">
            <mxPoint x="-520" y="150" as="sourcePoint" />
            <mxPoint x="-470" y="100" as="targetPoint" />
          </mxGeometry>
        </mxCell>
        <mxCell id="Fa6GfZsPcnkaOSwE8bsE-82" value="" style="shape=table;startSize=0;container=1;collapsible=0;childLayout=tableLayout;strokeWidth=2;swimlaneFillColor=none;" vertex="1" parent="1">
          <mxGeometry x="-938" y="860" width="880" height="367" as="geometry" />
        </mxCell>
        <mxCell id="Fa6GfZsPcnkaOSwE8bsE-83" value="" style="shape=tableRow;horizontal=0;startSize=0;swimlaneHead=0;swimlaneBody=0;strokeColor=inherit;top=0;left=0;bottom=0;right=0;collapsible=0;dropTarget=0;fillColor=none;points=[[0,0.5],[1,0.5]];portConstraint=eastwest;" vertex="1" parent="Fa6GfZsPcnkaOSwE8bsE-82">
          <mxGeometry width="880" height="40" as="geometry" />
        </mxCell>
        <mxCell id="Fa6GfZsPcnkaOSwE8bsE-129" style="shape=partialRectangle;html=1;whiteSpace=wrap;connectable=0;strokeColor=inherit;overflow=hidden;fillColor=#f8cecc;top=0;left=0;bottom=0;right=0;pointerEvents=1;fontSize=16;" vertex="1" parent="Fa6GfZsPcnkaOSwE8bsE-83">
          <mxGeometry width="98" height="40" as="geometry">
            <mxRectangle width="98" height="40" as="alternateBounds" />
          </mxGeometry>
        </mxCell>
        <mxCell id="Fa6GfZsPcnkaOSwE8bsE-84" value="Crossover" style="shape=partialRectangle;html=1;whiteSpace=wrap;connectable=0;strokeColor=inherit;overflow=hidden;fillColor=#f8cecc;top=0;left=0;bottom=0;right=0;pointerEvents=1;fontSize=16;rowspan=1;colspan=8;" vertex="1" parent="Fa6GfZsPcnkaOSwE8bsE-83">
          <mxGeometry x="98" width="782" height="40" as="geometry">
            <mxRectangle width="98" height="40" as="alternateBounds" />
          </mxGeometry>
        </mxCell>
        <mxCell id="Fa6GfZsPcnkaOSwE8bsE-99" style="shape=partialRectangle;html=1;whiteSpace=wrap;connectable=0;strokeColor=inherit;overflow=hidden;fillColor=#f8cecc;top=0;left=0;bottom=0;right=0;pointerEvents=1;fontSize=16;" vertex="1" visible="0" parent="Fa6GfZsPcnkaOSwE8bsE-83">
          <mxGeometry x="196" width="98" height="40" as="geometry">
            <mxRectangle width="98" height="40" as="alternateBounds" />
          </mxGeometry>
        </mxCell>
        <mxCell id="Fa6GfZsPcnkaOSwE8bsE-97" style="shape=partialRectangle;html=1;whiteSpace=wrap;connectable=0;strokeColor=inherit;overflow=hidden;fillColor=#f8cecc;top=0;left=0;bottom=0;right=0;pointerEvents=1;fontSize=16;" vertex="1" visible="0" parent="Fa6GfZsPcnkaOSwE8bsE-83">
          <mxGeometry x="294" width="98" height="40" as="geometry">
            <mxRectangle width="98" height="40" as="alternateBounds" />
          </mxGeometry>
        </mxCell>
        <mxCell id="Fa6GfZsPcnkaOSwE8bsE-95" style="shape=partialRectangle;html=1;whiteSpace=wrap;connectable=0;strokeColor=inherit;overflow=hidden;fillColor=#f8cecc;top=0;left=0;bottom=0;right=0;pointerEvents=1;fontSize=16;" vertex="1" visible="0" parent="Fa6GfZsPcnkaOSwE8bsE-83">
          <mxGeometry x="392" width="98" height="40" as="geometry">
            <mxRectangle width="98" height="40" as="alternateBounds" />
          </mxGeometry>
        </mxCell>
        <mxCell id="Fa6GfZsPcnkaOSwE8bsE-85" value="" style="shape=partialRectangle;html=1;whiteSpace=wrap;connectable=0;strokeColor=inherit;overflow=hidden;fillColor=none;top=0;left=0;bottom=0;right=0;pointerEvents=1;" vertex="1" visible="0" parent="Fa6GfZsPcnkaOSwE8bsE-83">
          <mxGeometry x="490" width="98" height="40" as="geometry">
            <mxRectangle width="98" height="40" as="alternateBounds" />
          </mxGeometry>
        </mxCell>
        <mxCell id="Fa6GfZsPcnkaOSwE8bsE-86" value="" style="shape=partialRectangle;html=1;whiteSpace=wrap;connectable=0;strokeColor=inherit;overflow=hidden;fillColor=none;top=0;left=0;bottom=0;right=0;pointerEvents=1;" vertex="1" visible="0" parent="Fa6GfZsPcnkaOSwE8bsE-83">
          <mxGeometry x="588" width="96" height="40" as="geometry">
            <mxRectangle width="96" height="40" as="alternateBounds" />
          </mxGeometry>
        </mxCell>
        <mxCell id="Fa6GfZsPcnkaOSwE8bsE-87" value="" style="shape=partialRectangle;html=1;whiteSpace=wrap;connectable=0;strokeColor=inherit;overflow=hidden;fillColor=none;top=0;left=0;bottom=0;right=0;pointerEvents=1;" vertex="1" visible="0" parent="Fa6GfZsPcnkaOSwE8bsE-83">
          <mxGeometry x="684" width="98" height="40" as="geometry">
            <mxRectangle width="98" height="40" as="alternateBounds" />
          </mxGeometry>
        </mxCell>
        <mxCell id="Fa6GfZsPcnkaOSwE8bsE-88" style="shape=partialRectangle;html=1;whiteSpace=wrap;connectable=0;strokeColor=inherit;overflow=hidden;fillColor=none;top=0;left=0;bottom=0;right=0;pointerEvents=1;" vertex="1" visible="0" parent="Fa6GfZsPcnkaOSwE8bsE-83">
          <mxGeometry x="782" width="98" height="40" as="geometry">
            <mxRectangle width="98" height="40" as="alternateBounds" />
          </mxGeometry>
        </mxCell>
        <mxCell id="Fa6GfZsPcnkaOSwE8bsE-89" value="" style="shape=tableRow;horizontal=0;startSize=0;swimlaneHead=0;swimlaneBody=0;strokeColor=inherit;top=0;left=0;bottom=0;right=0;collapsible=0;dropTarget=0;fillColor=none;points=[[0,0.5],[1,0.5]];portConstraint=eastwest;" vertex="1" parent="Fa6GfZsPcnkaOSwE8bsE-82">
          <mxGeometry y="40" width="880" height="109" as="geometry" />
        </mxCell>
        <mxCell id="Fa6GfZsPcnkaOSwE8bsE-130" value="&lt;b&gt;Parent 1&lt;/b&gt;" style="shape=partialRectangle;html=1;whiteSpace=wrap;connectable=0;overflow=hidden;top=0;left=0;bottom=0;right=0;pointerEvents=1;fontSize=16;" vertex="1" parent="Fa6GfZsPcnkaOSwE8bsE-89">
          <mxGeometry width="98" height="109" as="geometry">
            <mxRectangle width="98" height="109" as="alternateBounds" />
          </mxGeometry>
        </mxCell>
        <mxCell id="Fa6GfZsPcnkaOSwE8bsE-90" value="&lt;div&gt;In 1&lt;/div&gt;&lt;div&gt;Out 5&lt;/div&gt;&lt;div&gt;Weight -0.8&lt;/div&gt;&lt;div&gt;Enabled&lt;/div&gt;&lt;div&gt;Innov 1&lt;/div&gt;" style="shape=partialRectangle;html=1;whiteSpace=wrap;connectable=0;strokeColor=#d6b656;overflow=hidden;fillColor=#fff2cc;top=0;left=0;bottom=0;right=0;pointerEvents=1;fontSize=16;" vertex="1" parent="Fa6GfZsPcnkaOSwE8bsE-89">
          <mxGeometry x="98" width="98" height="109" as="geometry">
            <mxRectangle width="98" height="109" as="alternateBounds" />
          </mxGeometry>
        </mxCell>
        <mxCell id="Fa6GfZsPcnkaOSwE8bsE-100" value="&lt;div&gt;In 2&lt;/div&gt;&lt;div&gt;Out 4&lt;/div&gt;&lt;div&gt;Weight 1.2&lt;/div&gt;&lt;div&gt;Enabled&lt;/div&gt;&lt;div&gt;Innov 2&lt;/div&gt;" style="shape=partialRectangle;html=1;whiteSpace=wrap;connectable=0;strokeColor=inherit;overflow=hidden;fillColor=#f5f5f5;top=0;left=0;bottom=0;right=0;pointerEvents=1;fontSize=16;fontColor=#333333;" vertex="1" parent="Fa6GfZsPcnkaOSwE8bsE-89">
          <mxGeometry x="196" width="98" height="109" as="geometry">
            <mxRectangle width="98" height="109" as="alternateBounds" />
          </mxGeometry>
        </mxCell>
        <mxCell id="Fa6GfZsPcnkaOSwE8bsE-98" value="&lt;div&gt;In 3&lt;/div&gt;&lt;div&gt;Out 4&lt;/div&gt;&lt;div&gt;Weight 1.8&lt;/div&gt;&lt;div&gt;Enabled&lt;/div&gt;&lt;div&gt;Innov 3&lt;/div&gt;" style="shape=partialRectangle;html=1;whiteSpace=wrap;connectable=0;strokeColor=#6c8ebf;overflow=hidden;fillColor=#dae8fc;top=0;left=0;bottom=0;right=0;pointerEvents=1;fontSize=16;" vertex="1" parent="Fa6GfZsPcnkaOSwE8bsE-89">
          <mxGeometry x="294" width="98" height="109" as="geometry">
            <mxRectangle width="98" height="109" as="alternateBounds" />
          </mxGeometry>
        </mxCell>
        <mxCell id="Fa6GfZsPcnkaOSwE8bsE-96" value="&lt;div&gt;In 4&lt;/div&gt;&lt;div&gt;Out 5&lt;/div&gt;&lt;div&gt;Weight -1.4&lt;/div&gt;&lt;div&gt;Enabled&lt;/div&gt;&lt;div&gt;Innov 4&lt;/div&gt;" style="shape=partialRectangle;html=1;whiteSpace=wrap;connectable=0;strokeColor=inherit;overflow=hidden;fillColor=#f5f5f5;top=0;left=0;bottom=0;right=0;pointerEvents=1;fontSize=16;fontColor=#333333;" vertex="1" parent="Fa6GfZsPcnkaOSwE8bsE-89">
          <mxGeometry x="392" width="98" height="109" as="geometry">
            <mxRectangle width="98" height="109" as="alternateBounds" />
          </mxGeometry>
        </mxCell>
        <mxCell id="Fa6GfZsPcnkaOSwE8bsE-91" value="&lt;div&gt;In 3&lt;/div&gt;&lt;div&gt;Out 5&lt;/div&gt;&lt;div&gt;Weight 0&lt;/div&gt;&lt;div&gt;Disabled&lt;/div&gt;&lt;div&gt;Innov 5&lt;/div&gt;" style="shape=partialRectangle;html=1;whiteSpace=wrap;connectable=0;strokeColor=#6c8ebf;overflow=hidden;fillColor=#dae8fc;top=0;left=0;bottom=0;right=0;pointerEvents=1;fontSize=16;" vertex="1" parent="Fa6GfZsPcnkaOSwE8bsE-89">
          <mxGeometry x="490" width="98" height="109" as="geometry">
            <mxRectangle width="98" height="109" as="alternateBounds" />
          </mxGeometry>
        </mxCell>
        <mxCell id="Fa6GfZsPcnkaOSwE8bsE-92" value="" style="shape=partialRectangle;html=1;whiteSpace=wrap;connectable=0;overflow=hidden;top=0;left=0;bottom=0;right=0;pointerEvents=1;fontSize=16;rowspan=1;colspan=3;" vertex="1" parent="Fa6GfZsPcnkaOSwE8bsE-89">
          <mxGeometry x="588" width="292" height="109" as="geometry">
            <mxRectangle width="96" height="109" as="alternateBounds" />
          </mxGeometry>
        </mxCell>
        <mxCell id="Fa6GfZsPcnkaOSwE8bsE-93" value="" style="shape=partialRectangle;html=1;whiteSpace=wrap;connectable=0;strokeColor=inherit;overflow=hidden;fillColor=#f5f5f5;top=0;left=0;bottom=0;right=0;pointerEvents=1;fontSize=16;fontColor=#333333;" vertex="1" visible="0" parent="Fa6GfZsPcnkaOSwE8bsE-89">
          <mxGeometry x="684" width="98" height="109" as="geometry">
            <mxRectangle width="98" height="109" as="alternateBounds" />
          </mxGeometry>
        </mxCell>
        <mxCell id="Fa6GfZsPcnkaOSwE8bsE-94" value="" style="shape=partialRectangle;html=1;whiteSpace=wrap;connectable=0;strokeColor=inherit;overflow=hidden;fillColor=#f5f5f5;top=0;left=0;bottom=0;right=0;pointerEvents=1;fontSize=16;fontColor=#333333;" vertex="1" visible="0" parent="Fa6GfZsPcnkaOSwE8bsE-89">
          <mxGeometry x="782" width="98" height="109" as="geometry">
            <mxRectangle width="98" height="109" as="alternateBounds" />
          </mxGeometry>
        </mxCell>
        <mxCell id="Fa6GfZsPcnkaOSwE8bsE-110" style="shape=tableRow;horizontal=0;startSize=0;swimlaneHead=0;swimlaneBody=0;strokeColor=inherit;top=0;left=0;bottom=0;right=0;collapsible=0;dropTarget=0;fillColor=none;points=[[0,0.5],[1,0.5]];portConstraint=eastwest;" vertex="1" parent="Fa6GfZsPcnkaOSwE8bsE-82">
          <mxGeometry y="149" width="880" height="109" as="geometry" />
        </mxCell>
        <mxCell id="Fa6GfZsPcnkaOSwE8bsE-131" value="&lt;b&gt;Parent 2&lt;/b&gt;" style="shape=partialRectangle;html=1;whiteSpace=wrap;connectable=0;overflow=hidden;top=0;left=0;bottom=0;right=0;pointerEvents=1;fontSize=16;" vertex="1" parent="Fa6GfZsPcnkaOSwE8bsE-110">
          <mxGeometry width="98" height="109" as="geometry">
            <mxRectangle width="98" height="109" as="alternateBounds" />
          </mxGeometry>
        </mxCell>
        <mxCell id="Fa6GfZsPcnkaOSwE8bsE-111" style="shape=partialRectangle;html=1;whiteSpace=wrap;connectable=0;overflow=hidden;top=0;left=0;bottom=0;right=0;pointerEvents=1;fontSize=16;" vertex="1" parent="Fa6GfZsPcnkaOSwE8bsE-110">
          <mxGeometry x="98" width="98" height="109" as="geometry">
            <mxRectangle width="98" height="109" as="alternateBounds" />
          </mxGeometry>
        </mxCell>
        <mxCell id="Fa6GfZsPcnkaOSwE8bsE-112" value="&lt;div&gt;In 2&lt;/div&gt;&lt;div&gt;Out 4&lt;/div&gt;&lt;div&gt;Weight 1.2&lt;/div&gt;&lt;div&gt;Enabled&lt;/div&gt;&lt;div&gt;Innov 2&lt;/div&gt;" style="shape=partialRectangle;html=1;whiteSpace=wrap;connectable=0;strokeColor=inherit;overflow=hidden;fillColor=#f5f5f5;top=0;left=0;bottom=0;right=0;pointerEvents=1;fontSize=16;fontColor=#333333;" vertex="1" parent="Fa6GfZsPcnkaOSwE8bsE-110">
          <mxGeometry x="196" width="98" height="109" as="geometry">
            <mxRectangle width="98" height="109" as="alternateBounds" />
          </mxGeometry>
        </mxCell>
        <mxCell id="Fa6GfZsPcnkaOSwE8bsE-113" style="shape=partialRectangle;html=1;whiteSpace=wrap;connectable=0;overflow=hidden;top=0;left=0;bottom=0;right=0;pointerEvents=1;fontSize=16;" vertex="1" parent="Fa6GfZsPcnkaOSwE8bsE-110">
          <mxGeometry x="294" width="98" height="109" as="geometry">
            <mxRectangle width="98" height="109" as="alternateBounds" />
          </mxGeometry>
        </mxCell>
        <mxCell id="Fa6GfZsPcnkaOSwE8bsE-114" value="&lt;div&gt;In 4&lt;/div&gt;&lt;div&gt;Out 5&lt;/div&gt;&lt;div&gt;Weight -1.4&lt;/div&gt;&lt;div&gt;Enabled&lt;/div&gt;&lt;div&gt;Innov 4&lt;/div&gt;" style="shape=partialRectangle;html=1;whiteSpace=wrap;connectable=0;strokeColor=inherit;overflow=hidden;fillColor=#f5f5f5;top=0;left=0;bottom=0;right=0;pointerEvents=1;fontSize=16;fontColor=#333333;" vertex="1" parent="Fa6GfZsPcnkaOSwE8bsE-110">
          <mxGeometry x="392" width="98" height="109" as="geometry">
            <mxRectangle width="98" height="109" as="alternateBounds" />
          </mxGeometry>
        </mxCell>
        <mxCell id="Fa6GfZsPcnkaOSwE8bsE-115" style="shape=partialRectangle;html=1;whiteSpace=wrap;connectable=0;overflow=hidden;top=0;left=0;bottom=0;right=0;pointerEvents=1;fontSize=16;" vertex="1" parent="Fa6GfZsPcnkaOSwE8bsE-110">
          <mxGeometry x="490" width="98" height="109" as="geometry">
            <mxRectangle width="98" height="109" as="alternateBounds" />
          </mxGeometry>
        </mxCell>
        <mxCell id="Fa6GfZsPcnkaOSwE8bsE-116" value="&lt;div&gt;In 1&lt;/div&gt;&lt;div&gt;Out 4&lt;/div&gt;&lt;div&gt;Weight 0.6&lt;/div&gt;&lt;div&gt;Enabled&lt;/div&gt;&lt;div&gt;Innov 6&lt;/div&gt;" style="shape=partialRectangle;html=1;whiteSpace=wrap;connectable=0;strokeColor=#d6b656;overflow=hidden;fillColor=#fff2cc;top=0;left=0;bottom=0;right=0;pointerEvents=1;fontSize=16;" vertex="1" parent="Fa6GfZsPcnkaOSwE8bsE-110">
          <mxGeometry x="588" width="96" height="109" as="geometry">
            <mxRectangle width="96" height="109" as="alternateBounds" />
          </mxGeometry>
        </mxCell>
        <mxCell id="Fa6GfZsPcnkaOSwE8bsE-117" value="&lt;div&gt;In 3&lt;/div&gt;&lt;div&gt;Out 6&lt;/div&gt;&lt;div&gt;Weight -1.2&lt;/div&gt;&lt;div&gt;Enabled&lt;/div&gt;&lt;div&gt;Innov 7&lt;/div&gt;" style="shape=partialRectangle;html=1;whiteSpace=wrap;connectable=0;strokeColor=#d6b656;overflow=hidden;fillColor=#fff2cc;top=0;left=0;bottom=0;right=0;pointerEvents=1;fontSize=16;" vertex="1" parent="Fa6GfZsPcnkaOSwE8bsE-110">
          <mxGeometry x="684" width="98" height="109" as="geometry">
            <mxRectangle width="98" height="109" as="alternateBounds" />
          </mxGeometry>
        </mxCell>
        <mxCell id="Fa6GfZsPcnkaOSwE8bsE-118" value="&lt;div&gt;In 6&lt;/div&gt;&lt;div&gt;Out 5&lt;/div&gt;&lt;div&gt;Weight 0.3&lt;/div&gt;&lt;div&gt;Enabled&lt;/div&gt;&lt;div&gt;Innov 8&lt;/div&gt;" style="shape=partialRectangle;html=1;whiteSpace=wrap;connectable=0;strokeColor=#d6b656;overflow=hidden;fillColor=#fff2cc;top=0;left=0;bottom=0;right=0;pointerEvents=1;fontSize=16;" vertex="1" parent="Fa6GfZsPcnkaOSwE8bsE-110">
          <mxGeometry x="782" width="98" height="109" as="geometry">
            <mxRectangle width="98" height="109" as="alternateBounds" />
          </mxGeometry>
        </mxCell>
        <mxCell id="Fa6GfZsPcnkaOSwE8bsE-119" style="shape=tableRow;horizontal=0;startSize=0;swimlaneHead=0;swimlaneBody=0;strokeColor=inherit;top=0;left=0;bottom=0;right=0;collapsible=0;dropTarget=0;fillColor=none;points=[[0,0.5],[1,0.5]];portConstraint=eastwest;" vertex="1" parent="Fa6GfZsPcnkaOSwE8bsE-82">
          <mxGeometry y="258" width="880" height="109" as="geometry" />
        </mxCell>
        <mxCell id="Fa6GfZsPcnkaOSwE8bsE-132" value="&lt;b&gt;Offspring&lt;/b&gt;" style="shape=partialRectangle;html=1;whiteSpace=wrap;connectable=0;overflow=hidden;top=0;left=0;bottom=0;right=0;pointerEvents=1;fontSize=16;" vertex="1" parent="Fa6GfZsPcnkaOSwE8bsE-119">
          <mxGeometry width="98" height="109" as="geometry">
            <mxRectangle width="98" height="109" as="alternateBounds" />
          </mxGeometry>
        </mxCell>
        <mxCell id="Fa6GfZsPcnkaOSwE8bsE-120" value="&lt;div&gt;In 1&lt;/div&gt;&lt;div&gt;Out 5&lt;/div&gt;&lt;div&gt;Weight -0.8&lt;/div&gt;&lt;div&gt;Enabled&lt;/div&gt;&lt;div&gt;Innov 1&lt;/div&gt;" style="shape=partialRectangle;html=1;whiteSpace=wrap;connectable=0;strokeColor=#82b366;overflow=hidden;fillColor=#d5e8d4;top=0;left=0;bottom=0;right=0;pointerEvents=1;fontSize=16;" vertex="1" parent="Fa6GfZsPcnkaOSwE8bsE-119">
          <mxGeometry x="98" width="98" height="109" as="geometry">
            <mxRectangle width="98" height="109" as="alternateBounds" />
          </mxGeometry>
        </mxCell>
        <mxCell id="Fa6GfZsPcnkaOSwE8bsE-121" value="&lt;div&gt;In 2&lt;/div&gt;&lt;div&gt;Out 4&lt;/div&gt;&lt;div&gt;Weight 1.2&lt;/div&gt;&lt;div&gt;Enabled&lt;/div&gt;&lt;div&gt;Innov 2&lt;/div&gt;" style="shape=partialRectangle;html=1;whiteSpace=wrap;connectable=0;strokeColor=#82b366;overflow=hidden;fillColor=#d5e8d4;top=0;left=0;bottom=0;right=0;pointerEvents=1;fontSize=16;" vertex="1" parent="Fa6GfZsPcnkaOSwE8bsE-119">
          <mxGeometry x="196" width="98" height="109" as="geometry">
            <mxRectangle width="98" height="109" as="alternateBounds" />
          </mxGeometry>
        </mxCell>
        <mxCell id="Fa6GfZsPcnkaOSwE8bsE-122" value="&lt;div&gt;In 3&lt;/div&gt;&lt;div&gt;Out 4&lt;/div&gt;&lt;div&gt;Weight 1.8&lt;/div&gt;&lt;div&gt;Enabled&lt;/div&gt;&lt;div&gt;Innov 3&lt;/div&gt;" style="shape=partialRectangle;html=1;whiteSpace=wrap;connectable=0;strokeColor=#82b366;overflow=hidden;fillColor=#d5e8d4;top=0;left=0;bottom=0;right=0;pointerEvents=1;fontSize=16;" vertex="1" parent="Fa6GfZsPcnkaOSwE8bsE-119">
          <mxGeometry x="294" width="98" height="109" as="geometry">
            <mxRectangle width="98" height="109" as="alternateBounds" />
          </mxGeometry>
        </mxCell>
        <mxCell id="Fa6GfZsPcnkaOSwE8bsE-123" value="&lt;div&gt;In 4&lt;/div&gt;&lt;div&gt;Out 5&lt;/div&gt;&lt;div&gt;Weight -1.4&lt;/div&gt;&lt;div&gt;Enabled&lt;/div&gt;&lt;div&gt;Innov 4&lt;/div&gt;" style="shape=partialRectangle;html=1;whiteSpace=wrap;connectable=0;strokeColor=#82b366;overflow=hidden;fillColor=#d5e8d4;top=0;left=0;bottom=0;right=0;pointerEvents=1;fontSize=16;" vertex="1" parent="Fa6GfZsPcnkaOSwE8bsE-119">
          <mxGeometry x="392" width="98" height="109" as="geometry">
            <mxRectangle width="98" height="109" as="alternateBounds" />
          </mxGeometry>
        </mxCell>
        <mxCell id="Fa6GfZsPcnkaOSwE8bsE-124" value="&lt;div&gt;In 3&lt;/div&gt;&lt;div&gt;Out 5&lt;/div&gt;&lt;div&gt;Weight 0&lt;/div&gt;&lt;div&gt;Disabled&lt;/div&gt;&lt;div&gt;Innov 5&lt;/div&gt;" style="shape=partialRectangle;html=1;whiteSpace=wrap;connectable=0;strokeColor=#82b366;overflow=hidden;fillColor=#d5e8d4;top=0;left=0;bottom=0;right=0;pointerEvents=1;fontSize=16;" vertex="1" parent="Fa6GfZsPcnkaOSwE8bsE-119">
          <mxGeometry x="490" width="98" height="109" as="geometry">
            <mxRectangle width="98" height="109" as="alternateBounds" />
          </mxGeometry>
        </mxCell>
        <mxCell id="Fa6GfZsPcnkaOSwE8bsE-125" value="&lt;div&gt;In 1&lt;/div&gt;&lt;div&gt;Out 4&lt;/div&gt;&lt;div&gt;Weight 0.6&lt;/div&gt;&lt;div&gt;Enabled&lt;/div&gt;&lt;div&gt;Innov 6&lt;/div&gt;" style="shape=partialRectangle;html=1;whiteSpace=wrap;connectable=0;strokeColor=#82b366;overflow=hidden;fillColor=#d5e8d4;top=0;left=0;bottom=0;right=0;pointerEvents=1;fontSize=16;" vertex="1" parent="Fa6GfZsPcnkaOSwE8bsE-119">
          <mxGeometry x="588" width="96" height="109" as="geometry">
            <mxRectangle width="96" height="109" as="alternateBounds" />
          </mxGeometry>
        </mxCell>
        <mxCell id="Fa6GfZsPcnkaOSwE8bsE-126" value="&lt;div&gt;In 3&lt;/div&gt;&lt;div&gt;Out 6&lt;/div&gt;&lt;div&gt;Weight -1.2&lt;/div&gt;&lt;div&gt;Enabled&lt;/div&gt;&lt;div&gt;Innov 7&lt;/div&gt;" style="shape=partialRectangle;html=1;whiteSpace=wrap;connectable=0;strokeColor=#82b366;overflow=hidden;fillColor=#d5e8d4;top=0;left=0;bottom=0;right=0;pointerEvents=1;fontSize=16;" vertex="1" parent="Fa6GfZsPcnkaOSwE8bsE-119">
          <mxGeometry x="684" width="98" height="109" as="geometry">
            <mxRectangle width="98" height="109" as="alternateBounds" />
          </mxGeometry>
        </mxCell>
        <mxCell id="Fa6GfZsPcnkaOSwE8bsE-127" value="&lt;div&gt;In 6&lt;/div&gt;&lt;div&gt;Out 5&lt;/div&gt;&lt;div&gt;Weight 0.3&lt;/div&gt;&lt;div&gt;Enabled&lt;/div&gt;&lt;div&gt;Innov 8&lt;/div&gt;" style="shape=partialRectangle;html=1;whiteSpace=wrap;connectable=0;strokeColor=#82b366;overflow=hidden;fillColor=#d5e8d4;top=0;left=0;bottom=0;right=0;pointerEvents=1;fontSize=16;" vertex="1" parent="Fa6GfZsPcnkaOSwE8bsE-119">
          <mxGeometry x="782" width="98" height="109" as="geometry">
            <mxRectangle width="98" height="109" as="alternateBounds" />
          </mxGeometry>
        </mxCell>
        <mxCell id="Fa6GfZsPcnkaOSwE8bsE-133" value="" style="endArrow=none;html=1;rounded=0;strokeWidth=3;" edge="1" parent="1">
          <mxGeometry width="50" height="50" relative="1" as="geometry">
            <mxPoint x="-437.5" y="760" as="sourcePoint" />
            <mxPoint x="-317.5" y="760" as="targetPoint" />
          </mxGeometry>
        </mxCell>
        <mxCell id="Fa6GfZsPcnkaOSwE8bsE-135" value="" style="endArrow=none;html=1;rounded=0;strokeWidth=3;" edge="1" parent="1">
          <mxGeometry width="50" height="50" relative="1" as="geometry">
            <mxPoint x="-437.5" y="800" as="sourcePoint" />
            <mxPoint x="-317.5" y="800" as="targetPoint" />
          </mxGeometry>
        </mxCell>
        <mxCell id="Fa6GfZsPcnkaOSwE8bsE-136" value="&lt;b&gt;&lt;font style=&quot;font-size: 16px;&quot;&gt;Excess Genes&lt;/font&gt;&lt;/b&gt;" style="whiteSpace=wrap;html=1;aspect=fixed;fillColor=#fff2cc;strokeColor=#d6b656;" vertex="1" parent="1">
          <mxGeometry x="-8" y="1000" width="80" height="80" as="geometry" />
        </mxCell>
        <mxCell id="Fa6GfZsPcnkaOSwE8bsE-137" value="&lt;b&gt;&lt;font style=&quot;font-size: 16px;&quot;&gt;Matching Genes&lt;/font&gt;&lt;/b&gt;" style="whiteSpace=wrap;html=1;aspect=fixed;fillColor=#f5f5f5;fontColor=#333333;strokeColor=#666666;" vertex="1" parent="1">
          <mxGeometry x="-8" y="890" width="80" height="80" as="geometry" />
        </mxCell>
        <mxCell id="Fa6GfZsPcnkaOSwE8bsE-138" value="&lt;font style=&quot;font-size: 16px;&quot;&gt;&lt;b&gt;Disjoint Genes&lt;/b&gt;&lt;/font&gt;" style="whiteSpace=wrap;html=1;aspect=fixed;fillColor=#dae8fc;strokeColor=#6c8ebf;" vertex="1" parent="1">
          <mxGeometry x="-10" y="1110" width="80" height="80" as="geometry" />
        </mxCell>
        <mxCell id="Fa6GfZsPcnkaOSwE8bsE-139" value="" style="rounded=0;whiteSpace=wrap;html=1;fillColor=none;" vertex="1" parent="1">
          <mxGeometry x="-1062.5" y="1280" width="1370" height="490" as="geometry" />
        </mxCell>
        <mxCell id="Fa6GfZsPcnkaOSwE8bsE-140" value="" style="rounded=0;whiteSpace=wrap;html=1;fillColor=none;" vertex="1" parent="1">
          <mxGeometry x="-42.5" y="1300" width="330" height="450" as="geometry" />
        </mxCell>
        <mxCell id="Fa6GfZsPcnkaOSwE8bsE-141" style="edgeStyle=none;curved=1;rounded=0;orthogonalLoop=1;jettySize=auto;html=1;entryX=1;entryY=0.5;entryDx=0;entryDy=0;fontSize=16;startSize=8;endSize=8;" edge="1" parent="1">
          <mxGeometry relative="1" as="geometry">
            <mxPoint x="101.5" y="1738" as="sourcePoint" />
            <mxPoint x="101.5" y="1738" as="targetPoint" />
          </mxGeometry>
        </mxCell>
        <mxCell id="Fa6GfZsPcnkaOSwE8bsE-142" value="4" style="ellipse;whiteSpace=wrap;html=1;fontSize=16;fillColor=#f8cecc;strokeColor=#b85450;" vertex="1" parent="1">
          <mxGeometry x="89.5" y="1505" width="60" height="60" as="geometry" />
        </mxCell>
        <mxCell id="Fa6GfZsPcnkaOSwE8bsE-143" value="2" style="ellipse;whiteSpace=wrap;html=1;fontSize=16;fillColor=#f8cecc;strokeColor=#b85450;" vertex="1" parent="1">
          <mxGeometry x="89.5" y="1609" width="60" height="60" as="geometry" />
        </mxCell>
        <mxCell id="Fa6GfZsPcnkaOSwE8bsE-144" value="5" style="ellipse;whiteSpace=wrap;html=1;fontSize=16;fillColor=#f8cecc;strokeColor=#b85450;" vertex="1" parent="1">
          <mxGeometry x="89.5" y="1410" width="60" height="60" as="geometry" />
        </mxCell>
        <mxCell id="Fa6GfZsPcnkaOSwE8bsE-145" value="3" style="ellipse;whiteSpace=wrap;html=1;fontSize=16;fillColor=#f8cecc;strokeColor=#b85450;" vertex="1" parent="1">
          <mxGeometry x="209.5" y="1609" width="60" height="60" as="geometry" />
        </mxCell>
        <mxCell id="Fa6GfZsPcnkaOSwE8bsE-146" value="" style="endArrow=classic;html=1;rounded=0;entryX=0.5;entryY=1;entryDx=0;entryDy=0;" edge="1" parent="1" target="Fa6GfZsPcnkaOSwE8bsE-143">
          <mxGeometry width="50" height="50" relative="1" as="geometry">
            <mxPoint x="119.5" y="1720" as="sourcePoint" />
            <mxPoint x="137.5" y="1720" as="targetPoint" />
          </mxGeometry>
        </mxCell>
        <mxCell id="Fa6GfZsPcnkaOSwE8bsE-147" value="" style="endArrow=classic;html=1;rounded=0;entryX=0.5;entryY=1;entryDx=0;entryDy=0;exitX=0.5;exitY=0;exitDx=0;exitDy=0;" edge="1" parent="1" source="Fa6GfZsPcnkaOSwE8bsE-143" target="Fa6GfZsPcnkaOSwE8bsE-142">
          <mxGeometry width="50" height="50" relative="1" as="geometry">
            <mxPoint x="123.5" y="1730" as="sourcePoint" />
            <mxPoint x="123.5" y="1679" as="targetPoint" />
          </mxGeometry>
        </mxCell>
        <mxCell id="Fa6GfZsPcnkaOSwE8bsE-148" value="" style="endArrow=classic;html=1;rounded=0;entryX=1;entryY=1;entryDx=0;entryDy=0;exitX=0.5;exitY=0;exitDx=0;exitDy=0;" edge="1" parent="1" source="Fa6GfZsPcnkaOSwE8bsE-145" target="Fa6GfZsPcnkaOSwE8bsE-142">
          <mxGeometry width="50" height="50" relative="1" as="geometry">
            <mxPoint x="123.5" y="1619" as="sourcePoint" />
            <mxPoint x="159.5" y="1575" as="targetPoint" />
          </mxGeometry>
        </mxCell>
        <mxCell id="Fa6GfZsPcnkaOSwE8bsE-149" value="" style="endArrow=classic;html=1;rounded=0;entryX=0.5;entryY=1;entryDx=0;entryDy=0;exitX=0.5;exitY=0;exitDx=0;exitDy=0;" edge="1" parent="1" source="Fa6GfZsPcnkaOSwE8bsE-142" target="Fa6GfZsPcnkaOSwE8bsE-144">
          <mxGeometry width="50" height="50" relative="1" as="geometry">
            <mxPoint x="123.5" y="1619" as="sourcePoint" />
            <mxPoint x="159.5" y="1575" as="targetPoint" />
          </mxGeometry>
        </mxCell>
        <mxCell id="Fa6GfZsPcnkaOSwE8bsE-150" value="" style="endArrow=classic;html=1;rounded=0;exitX=0.5;exitY=0;exitDx=0;exitDy=0;" edge="1" parent="1" source="Fa6GfZsPcnkaOSwE8bsE-144" target="Fa6GfZsPcnkaOSwE8bsE-155">
          <mxGeometry width="50" height="50" relative="1" as="geometry">
            <mxPoint x="170" y="1401" as="sourcePoint" />
            <mxPoint x="179.5" y="1350" as="targetPoint" />
          </mxGeometry>
        </mxCell>
        <mxCell id="Fa6GfZsPcnkaOSwE8bsE-151" value="" style="rounded=0;whiteSpace=wrap;html=1;fillColor=none;" vertex="1" parent="1">
          <mxGeometry x="-1042.5" y="1350" width="850" height="350" as="geometry" />
        </mxCell>
        <mxCell id="Fa6GfZsPcnkaOSwE8bsE-152" value="" style="endArrow=classic;html=1;rounded=0;entryX=0.5;entryY=1;entryDx=0;entryDy=0;exitX=0.5;exitY=0;exitDx=0;exitDy=0;" edge="1" parent="1" source="Fa6GfZsPcnkaOSwE8bsE-154" target="Fa6GfZsPcnkaOSwE8bsE-145">
          <mxGeometry width="50" height="50" relative="1" as="geometry">
            <mxPoint x="239.10000000000002" y="1720" as="sourcePoint" />
            <mxPoint x="239.10000000000002" y="1669" as="targetPoint" />
          </mxGeometry>
        </mxCell>
        <mxCell id="Fa6GfZsPcnkaOSwE8bsE-153" value="Input 2" style="text;html=1;align=center;verticalAlign=middle;whiteSpace=wrap;rounded=0;fontSize=16;" vertex="1" parent="1">
          <mxGeometry x="89.5" y="1720" width="60" height="30" as="geometry" />
        </mxCell>
        <mxCell id="Fa6GfZsPcnkaOSwE8bsE-154" value="Input 3" style="text;html=1;align=center;verticalAlign=middle;whiteSpace=wrap;rounded=0;fontSize=16;" vertex="1" parent="1">
          <mxGeometry x="209.5" y="1720" width="60" height="30" as="geometry" />
        </mxCell>
        <mxCell id="Fa6GfZsPcnkaOSwE8bsE-155" value="Output" style="text;html=1;align=center;verticalAlign=middle;whiteSpace=wrap;rounded=0;fontSize=16;" vertex="1" parent="1">
          <mxGeometry x="89.5" y="1350" width="60" height="30" as="geometry" />
        </mxCell>
        <mxCell id="Fa6GfZsPcnkaOSwE8bsE-156" value="Genome (Genotype)" style="text;html=1;align=center;verticalAlign=middle;whiteSpace=wrap;rounded=0;fontSize=16;fontStyle=1" vertex="1" parent="1">
          <mxGeometry x="-1042.5" y="1360" width="100" height="30" as="geometry" />
        </mxCell>
        <mxCell id="Fa6GfZsPcnkaOSwE8bsE-157" value="" style="shape=table;startSize=0;container=1;collapsible=0;childLayout=tableLayout;strokeWidth=2;swimlaneFillColor=none;" vertex="1" parent="1">
          <mxGeometry x="-1022.5" y="1420" width="480" height="85" as="geometry" />
        </mxCell>
        <mxCell id="Fa6GfZsPcnkaOSwE8bsE-158" value="" style="shape=tableRow;horizontal=0;startSize=0;swimlaneHead=0;swimlaneBody=0;strokeColor=inherit;top=0;left=0;bottom=0;right=0;collapsible=0;dropTarget=0;fillColor=none;points=[[0,0.5],[1,0.5]];portConstraint=eastwest;" vertex="1" parent="Fa6GfZsPcnkaOSwE8bsE-157">
          <mxGeometry width="480" height="40" as="geometry" />
        </mxCell>
        <mxCell id="Fa6GfZsPcnkaOSwE8bsE-159" value="Node Gene" style="shape=partialRectangle;html=1;whiteSpace=wrap;connectable=0;strokeColor=inherit;overflow=hidden;fillColor=#f8cecc;top=0;left=0;bottom=0;right=0;pointerEvents=1;fontSize=16;rowspan=1;colspan=6;" vertex="1" parent="Fa6GfZsPcnkaOSwE8bsE-158">
          <mxGeometry width="480" height="40" as="geometry">
            <mxRectangle width="80" height="40" as="alternateBounds" />
          </mxGeometry>
        </mxCell>
        <mxCell id="Fa6GfZsPcnkaOSwE8bsE-160" style="shape=partialRectangle;html=1;whiteSpace=wrap;connectable=0;strokeColor=inherit;overflow=hidden;fillColor=#f8cecc;top=0;left=0;bottom=0;right=0;pointerEvents=1;fontSize=16;" vertex="1" visible="0" parent="Fa6GfZsPcnkaOSwE8bsE-158">
          <mxGeometry x="80" width="80" height="40" as="geometry">
            <mxRectangle width="80" height="40" as="alternateBounds" />
          </mxGeometry>
        </mxCell>
        <mxCell id="Fa6GfZsPcnkaOSwE8bsE-161" value="" style="shape=partialRectangle;html=1;whiteSpace=wrap;connectable=0;strokeColor=inherit;overflow=hidden;fillColor=none;top=0;left=0;bottom=0;right=0;pointerEvents=1;" vertex="1" visible="0" parent="Fa6GfZsPcnkaOSwE8bsE-158">
          <mxGeometry x="160" width="80" height="40" as="geometry">
            <mxRectangle width="80" height="40" as="alternateBounds" />
          </mxGeometry>
        </mxCell>
        <mxCell id="Fa6GfZsPcnkaOSwE8bsE-162" value="" style="shape=partialRectangle;html=1;whiteSpace=wrap;connectable=0;strokeColor=inherit;overflow=hidden;fillColor=none;top=0;left=0;bottom=0;right=0;pointerEvents=1;" vertex="1" visible="0" parent="Fa6GfZsPcnkaOSwE8bsE-158">
          <mxGeometry x="240" width="80" height="40" as="geometry">
            <mxRectangle width="80" height="40" as="alternateBounds" />
          </mxGeometry>
        </mxCell>
        <mxCell id="Fa6GfZsPcnkaOSwE8bsE-163" value="" style="shape=partialRectangle;html=1;whiteSpace=wrap;connectable=0;strokeColor=inherit;overflow=hidden;fillColor=none;top=0;left=0;bottom=0;right=0;pointerEvents=1;" vertex="1" visible="0" parent="Fa6GfZsPcnkaOSwE8bsE-158">
          <mxGeometry x="320" width="80" height="40" as="geometry">
            <mxRectangle width="80" height="40" as="alternateBounds" />
          </mxGeometry>
        </mxCell>
        <mxCell id="Fa6GfZsPcnkaOSwE8bsE-164" style="shape=partialRectangle;html=1;whiteSpace=wrap;connectable=0;strokeColor=inherit;overflow=hidden;fillColor=none;top=0;left=0;bottom=0;right=0;pointerEvents=1;" vertex="1" visible="0" parent="Fa6GfZsPcnkaOSwE8bsE-158">
          <mxGeometry x="400" width="80" height="40" as="geometry">
            <mxRectangle width="80" height="40" as="alternateBounds" />
          </mxGeometry>
        </mxCell>
        <mxCell id="Fa6GfZsPcnkaOSwE8bsE-165" value="" style="shape=tableRow;horizontal=0;startSize=0;swimlaneHead=0;swimlaneBody=0;strokeColor=inherit;top=0;left=0;bottom=0;right=0;collapsible=0;dropTarget=0;fillColor=none;points=[[0,0.5],[1,0.5]];portConstraint=eastwest;" vertex="1" parent="Fa6GfZsPcnkaOSwE8bsE-157">
          <mxGeometry y="40" width="480" height="45" as="geometry" />
        </mxCell>
        <mxCell id="Fa6GfZsPcnkaOSwE8bsE-166" value="&lt;div&gt;Node 1&lt;/div&gt;&lt;div&gt;Input&lt;/div&gt;" style="shape=partialRectangle;html=1;whiteSpace=wrap;connectable=0;strokeColor=inherit;overflow=hidden;fillColor=#f5f5f5;top=0;left=0;bottom=0;right=0;pointerEvents=1;fontSize=16;fontColor=#333333;" vertex="1" parent="Fa6GfZsPcnkaOSwE8bsE-165">
          <mxGeometry width="80" height="45" as="geometry">
            <mxRectangle width="80" height="45" as="alternateBounds" />
          </mxGeometry>
        </mxCell>
        <mxCell id="Fa6GfZsPcnkaOSwE8bsE-167" value="&lt;div&gt;Node 2&lt;/div&gt;&lt;div&gt;Input&lt;/div&gt;" style="shape=partialRectangle;html=1;whiteSpace=wrap;connectable=0;strokeColor=inherit;overflow=hidden;fillColor=#f5f5f5;top=0;left=0;bottom=0;right=0;pointerEvents=1;fontSize=16;fontColor=#333333;" vertex="1" parent="Fa6GfZsPcnkaOSwE8bsE-165">
          <mxGeometry x="80" width="80" height="45" as="geometry">
            <mxRectangle width="80" height="45" as="alternateBounds" />
          </mxGeometry>
        </mxCell>
        <mxCell id="Fa6GfZsPcnkaOSwE8bsE-168" value="&lt;div&gt;Node 3&lt;/div&gt;&lt;div&gt;Input&lt;/div&gt;" style="shape=partialRectangle;html=1;whiteSpace=wrap;connectable=0;strokeColor=inherit;overflow=hidden;fillColor=#f5f5f5;top=0;left=0;bottom=0;right=0;pointerEvents=1;fontSize=16;fontColor=#333333;" vertex="1" parent="Fa6GfZsPcnkaOSwE8bsE-165">
          <mxGeometry x="160" width="80" height="45" as="geometry">
            <mxRectangle width="80" height="45" as="alternateBounds" />
          </mxGeometry>
        </mxCell>
        <mxCell id="Fa6GfZsPcnkaOSwE8bsE-169" value="&lt;div&gt;Node 4&lt;/div&gt;&lt;div&gt;Hidden&lt;/div&gt;" style="shape=partialRectangle;html=1;whiteSpace=wrap;connectable=0;strokeColor=inherit;overflow=hidden;fillColor=#f5f5f5;top=0;left=0;bottom=0;right=0;pointerEvents=1;fontSize=16;fontColor=#333333;" vertex="1" parent="Fa6GfZsPcnkaOSwE8bsE-165">
          <mxGeometry x="240" width="80" height="45" as="geometry">
            <mxRectangle width="80" height="45" as="alternateBounds" />
          </mxGeometry>
        </mxCell>
        <mxCell id="Fa6GfZsPcnkaOSwE8bsE-170" value="&lt;div&gt;Node 5&lt;/div&gt;&lt;div&gt;Output&lt;/div&gt;" style="shape=partialRectangle;html=1;whiteSpace=wrap;connectable=0;strokeColor=inherit;overflow=hidden;fillColor=#f5f5f5;top=0;left=0;bottom=0;right=0;pointerEvents=1;fontSize=16;fontColor=#333333;" vertex="1" parent="Fa6GfZsPcnkaOSwE8bsE-165">
          <mxGeometry x="320" width="80" height="45" as="geometry">
            <mxRectangle width="80" height="45" as="alternateBounds" />
          </mxGeometry>
        </mxCell>
        <mxCell id="Fa6GfZsPcnkaOSwE8bsE-171" value="&lt;div&gt;Node 6&lt;/div&gt;&lt;div&gt;Hidden&lt;/div&gt;" style="shape=partialRectangle;html=1;whiteSpace=wrap;connectable=0;strokeColor=inherit;overflow=hidden;fillColor=#f5f5f5;top=0;left=0;bottom=0;right=0;pointerEvents=1;fontSize=16;fontColor=#333333;" vertex="1" parent="Fa6GfZsPcnkaOSwE8bsE-165">
          <mxGeometry x="400" width="80" height="45" as="geometry">
            <mxRectangle width="80" height="45" as="alternateBounds" />
          </mxGeometry>
        </mxCell>
        <mxCell id="Fa6GfZsPcnkaOSwE8bsE-172" value="" style="shape=table;startSize=0;container=1;collapsible=0;childLayout=tableLayout;strokeWidth=2;swimlaneFillColor=none;" vertex="1" parent="1">
          <mxGeometry x="-1022.5" y="1530" width="805" height="149" as="geometry" />
        </mxCell>
        <mxCell id="Fa6GfZsPcnkaOSwE8bsE-173" value="" style="shape=tableRow;horizontal=0;startSize=0;swimlaneHead=0;swimlaneBody=0;strokeColor=inherit;top=0;left=0;bottom=0;right=0;collapsible=0;dropTarget=0;fillColor=none;points=[[0,0.5],[1,0.5]];portConstraint=eastwest;" vertex="1" parent="Fa6GfZsPcnkaOSwE8bsE-172">
          <mxGeometry width="805" height="40" as="geometry" />
        </mxCell>
        <mxCell id="Fa6GfZsPcnkaOSwE8bsE-174" value="Connection Gene" style="shape=partialRectangle;html=1;whiteSpace=wrap;connectable=0;strokeColor=inherit;overflow=hidden;fillColor=#f8cecc;top=0;left=0;bottom=0;right=0;pointerEvents=1;fontSize=16;rowspan=1;colspan=8;" vertex="1" parent="Fa6GfZsPcnkaOSwE8bsE-173">
          <mxGeometry width="805" height="40" as="geometry">
            <mxRectangle width="101" height="40" as="alternateBounds" />
          </mxGeometry>
        </mxCell>
        <mxCell id="Fa6GfZsPcnkaOSwE8bsE-175" value="" style="shape=partialRectangle;html=1;whiteSpace=wrap;connectable=0;strokeColor=inherit;overflow=hidden;fillColor=none;top=0;left=0;bottom=0;right=0;pointerEvents=1;" vertex="1" visible="0" parent="Fa6GfZsPcnkaOSwE8bsE-173">
          <mxGeometry x="101" width="100" height="40" as="geometry">
            <mxRectangle width="100" height="40" as="alternateBounds" />
          </mxGeometry>
        </mxCell>
        <mxCell id="Fa6GfZsPcnkaOSwE8bsE-176" value="" style="shape=partialRectangle;html=1;whiteSpace=wrap;connectable=0;strokeColor=inherit;overflow=hidden;fillColor=none;top=0;left=0;bottom=0;right=0;pointerEvents=1;" vertex="1" visible="0" parent="Fa6GfZsPcnkaOSwE8bsE-173">
          <mxGeometry x="201" width="100" height="40" as="geometry">
            <mxRectangle width="100" height="40" as="alternateBounds" />
          </mxGeometry>
        </mxCell>
        <mxCell id="Fa6GfZsPcnkaOSwE8bsE-177" value="" style="shape=partialRectangle;html=1;whiteSpace=wrap;connectable=0;strokeColor=inherit;overflow=hidden;fillColor=none;top=0;left=0;bottom=0;right=0;pointerEvents=1;" vertex="1" visible="0" parent="Fa6GfZsPcnkaOSwE8bsE-173">
          <mxGeometry x="301" width="100" height="40" as="geometry">
            <mxRectangle width="100" height="40" as="alternateBounds" />
          </mxGeometry>
        </mxCell>
        <mxCell id="Fa6GfZsPcnkaOSwE8bsE-178" style="shape=partialRectangle;html=1;whiteSpace=wrap;connectable=0;strokeColor=inherit;overflow=hidden;fillColor=none;top=0;left=0;bottom=0;right=0;pointerEvents=1;" vertex="1" visible="0" parent="Fa6GfZsPcnkaOSwE8bsE-173">
          <mxGeometry x="401" width="101" height="40" as="geometry">
            <mxRectangle width="101" height="40" as="alternateBounds" />
          </mxGeometry>
        </mxCell>
        <mxCell id="Fa6GfZsPcnkaOSwE8bsE-199" style="shape=partialRectangle;html=1;whiteSpace=wrap;connectable=0;strokeColor=inherit;overflow=hidden;fillColor=none;top=0;left=0;bottom=0;right=0;pointerEvents=1;" vertex="1" visible="0" parent="Fa6GfZsPcnkaOSwE8bsE-173">
          <mxGeometry x="502" width="101" height="40" as="geometry">
            <mxRectangle width="101" height="40" as="alternateBounds" />
          </mxGeometry>
        </mxCell>
        <mxCell id="Fa6GfZsPcnkaOSwE8bsE-201" style="shape=partialRectangle;html=1;whiteSpace=wrap;connectable=0;strokeColor=inherit;overflow=hidden;fillColor=none;top=0;left=0;bottom=0;right=0;pointerEvents=1;" vertex="1" visible="0" parent="Fa6GfZsPcnkaOSwE8bsE-173">
          <mxGeometry x="603" width="101" height="40" as="geometry">
            <mxRectangle width="101" height="40" as="alternateBounds" />
          </mxGeometry>
        </mxCell>
        <mxCell id="Fa6GfZsPcnkaOSwE8bsE-203" style="shape=partialRectangle;html=1;whiteSpace=wrap;connectable=0;strokeColor=inherit;overflow=hidden;fillColor=none;top=0;left=0;bottom=0;right=0;pointerEvents=1;" vertex="1" visible="0" parent="Fa6GfZsPcnkaOSwE8bsE-173">
          <mxGeometry x="704" width="101" height="40" as="geometry">
            <mxRectangle width="101" height="40" as="alternateBounds" />
          </mxGeometry>
        </mxCell>
        <mxCell id="Fa6GfZsPcnkaOSwE8bsE-179" value="" style="shape=tableRow;horizontal=0;startSize=0;swimlaneHead=0;swimlaneBody=0;strokeColor=inherit;top=0;left=0;bottom=0;right=0;collapsible=0;dropTarget=0;fillColor=none;points=[[0,0.5],[1,0.5]];portConstraint=eastwest;" vertex="1" parent="Fa6GfZsPcnkaOSwE8bsE-172">
          <mxGeometry y="40" width="805" height="109" as="geometry" />
        </mxCell>
        <mxCell id="Fa6GfZsPcnkaOSwE8bsE-180" value="&lt;div&gt;In 1&lt;/div&gt;&lt;div&gt;Out 5&lt;/div&gt;&lt;div&gt;Weight -0.8&lt;/div&gt;&lt;div&gt;Enabled&lt;/div&gt;&lt;div&gt;Innov 1&lt;/div&gt;" style="shape=partialRectangle;html=1;whiteSpace=wrap;connectable=0;strokeColor=#82b366;overflow=hidden;fillColor=#d5e8d4;top=0;left=0;bottom=0;right=0;pointerEvents=1;fontSize=16;" vertex="1" parent="Fa6GfZsPcnkaOSwE8bsE-179">
          <mxGeometry width="101" height="109" as="geometry">
            <mxRectangle width="101" height="109" as="alternateBounds" />
          </mxGeometry>
        </mxCell>
        <mxCell id="Fa6GfZsPcnkaOSwE8bsE-181" value="&lt;div&gt;In 2&lt;/div&gt;&lt;div&gt;Out 4&lt;/div&gt;&lt;div&gt;Weight 1.2&lt;/div&gt;&lt;div&gt;Enabled&lt;/div&gt;&lt;div&gt;Innov 2&lt;/div&gt;" style="shape=partialRectangle;html=1;whiteSpace=wrap;connectable=0;strokeColor=#82b366;overflow=hidden;fillColor=#d5e8d4;top=0;left=0;bottom=0;right=0;pointerEvents=1;fontSize=16;" vertex="1" parent="Fa6GfZsPcnkaOSwE8bsE-179">
          <mxGeometry x="101" width="100" height="109" as="geometry">
            <mxRectangle width="100" height="109" as="alternateBounds" />
          </mxGeometry>
        </mxCell>
        <mxCell id="Fa6GfZsPcnkaOSwE8bsE-182" value="&lt;div&gt;In 3&lt;/div&gt;&lt;div&gt;Out 4&lt;/div&gt;&lt;div&gt;Weight 1.8&lt;/div&gt;&lt;div&gt;Enabled&lt;/div&gt;&lt;div&gt;Innov 3&lt;/div&gt;" style="shape=partialRectangle;html=1;whiteSpace=wrap;connectable=0;strokeColor=#82b366;overflow=hidden;fillColor=#d5e8d4;top=0;left=0;bottom=0;right=0;pointerEvents=1;fontSize=16;" vertex="1" parent="Fa6GfZsPcnkaOSwE8bsE-179">
          <mxGeometry x="201" width="100" height="109" as="geometry">
            <mxRectangle width="100" height="109" as="alternateBounds" />
          </mxGeometry>
        </mxCell>
        <mxCell id="Fa6GfZsPcnkaOSwE8bsE-183" value="&lt;div&gt;In 4&lt;/div&gt;&lt;div&gt;Out 5&lt;/div&gt;&lt;div&gt;Weight -1.4&lt;/div&gt;&lt;div&gt;Enabled&lt;/div&gt;&lt;div&gt;Innov 4&lt;/div&gt;" style="shape=partialRectangle;html=1;whiteSpace=wrap;connectable=0;strokeColor=#82b366;overflow=hidden;fillColor=#d5e8d4;top=0;left=0;bottom=0;right=0;pointerEvents=1;fontSize=16;" vertex="1" parent="Fa6GfZsPcnkaOSwE8bsE-179">
          <mxGeometry x="301" width="100" height="109" as="geometry">
            <mxRectangle width="100" height="109" as="alternateBounds" />
          </mxGeometry>
        </mxCell>
        <mxCell id="Fa6GfZsPcnkaOSwE8bsE-184" value="&lt;div&gt;In 3&lt;/div&gt;&lt;div&gt;Out 5&lt;/div&gt;&lt;div&gt;Weight 0&lt;/div&gt;&lt;div&gt;Disabled&lt;/div&gt;&lt;div&gt;Innov 5&lt;/div&gt;" style="shape=partialRectangle;html=1;whiteSpace=wrap;connectable=0;strokeColor=#82b366;overflow=hidden;fillColor=#d5e8d4;top=0;left=0;bottom=0;right=0;pointerEvents=1;fontSize=16;" vertex="1" parent="Fa6GfZsPcnkaOSwE8bsE-179">
          <mxGeometry x="401" width="101" height="109" as="geometry">
            <mxRectangle width="101" height="109" as="alternateBounds" />
          </mxGeometry>
        </mxCell>
        <mxCell id="Fa6GfZsPcnkaOSwE8bsE-200" value="&lt;div&gt;In 1&lt;/div&gt;&lt;div&gt;Out 4&lt;/div&gt;&lt;div&gt;Weight 0.6&lt;/div&gt;&lt;div&gt;Enabled&lt;/div&gt;&lt;div&gt;Innov 6&lt;/div&gt;" style="shape=partialRectangle;html=1;whiteSpace=wrap;connectable=0;strokeColor=#82b366;overflow=hidden;fillColor=#d5e8d4;top=0;left=0;bottom=0;right=0;pointerEvents=1;fontSize=16;" vertex="1" parent="Fa6GfZsPcnkaOSwE8bsE-179">
          <mxGeometry x="502" width="101" height="109" as="geometry">
            <mxRectangle width="101" height="109" as="alternateBounds" />
          </mxGeometry>
        </mxCell>
        <mxCell id="Fa6GfZsPcnkaOSwE8bsE-202" value="&lt;div&gt;In 3&lt;/div&gt;&lt;div&gt;Out 6&lt;/div&gt;&lt;div&gt;Weight -1.2&lt;/div&gt;&lt;div&gt;Enabled&lt;/div&gt;&lt;div&gt;Innov 7&lt;/div&gt;" style="shape=partialRectangle;html=1;whiteSpace=wrap;connectable=0;strokeColor=#82b366;overflow=hidden;fillColor=#d5e8d4;top=0;left=0;bottom=0;right=0;pointerEvents=1;fontSize=16;" vertex="1" parent="Fa6GfZsPcnkaOSwE8bsE-179">
          <mxGeometry x="603" width="101" height="109" as="geometry">
            <mxRectangle width="101" height="109" as="alternateBounds" />
          </mxGeometry>
        </mxCell>
        <mxCell id="Fa6GfZsPcnkaOSwE8bsE-204" value="&lt;div&gt;In 6&lt;/div&gt;&lt;div&gt;Out 5&lt;/div&gt;&lt;div&gt;Weight 0.3&lt;/div&gt;&lt;div&gt;Enabled&lt;/div&gt;&lt;div&gt;Innov 8&lt;/div&gt;" style="shape=partialRectangle;html=1;whiteSpace=wrap;connectable=0;strokeColor=#82b366;overflow=hidden;fillColor=#d5e8d4;top=0;left=0;bottom=0;right=0;pointerEvents=1;fontSize=16;" vertex="1" parent="Fa6GfZsPcnkaOSwE8bsE-179">
          <mxGeometry x="704" width="101" height="109" as="geometry">
            <mxRectangle width="101" height="109" as="alternateBounds" />
          </mxGeometry>
        </mxCell>
        <mxCell id="Fa6GfZsPcnkaOSwE8bsE-185" value="" style="endArrow=classic;html=1;rounded=0;exitX=0.5;exitY=0;exitDx=0;exitDy=0;entryX=1;entryY=1;entryDx=0;entryDy=0;dashed=1;fillColor=#f5f5f5;strokeColor=#666666;dashPattern=8 8;" edge="1" parent="1" source="Fa6GfZsPcnkaOSwE8bsE-145" target="Fa6GfZsPcnkaOSwE8bsE-144">
          <mxGeometry width="50" height="50" relative="1" as="geometry">
            <mxPoint x="117.5" y="1540" as="sourcePoint" />
            <mxPoint x="167.5" y="1490" as="targetPoint" />
          </mxGeometry>
        </mxCell>
        <mxCell id="Fa6GfZsPcnkaOSwE8bsE-186" value="Neural Network (Phenotype)" style="text;html=1;align=center;verticalAlign=middle;whiteSpace=wrap;rounded=0;fontSize=16;fontStyle=1" vertex="1" parent="1">
          <mxGeometry x="-42.5" y="1305" width="140" height="40" as="geometry" />
        </mxCell>
        <mxCell id="Fa6GfZsPcnkaOSwE8bsE-187" value="" style="endArrow=classic;startArrow=classic;html=1;rounded=0;strokeWidth=3;" edge="1" parent="1">
          <mxGeometry width="50" height="50" relative="1" as="geometry">
            <mxPoint x="-172.5" y="1543.47" as="sourcePoint" />
            <mxPoint x="-62.5" y="1544" as="targetPoint" />
          </mxGeometry>
        </mxCell>
        <mxCell id="Fa6GfZsPcnkaOSwE8bsE-188" value="1" style="ellipse;whiteSpace=wrap;html=1;fontSize=16;fillColor=#f8cecc;strokeColor=#b85450;" vertex="1" parent="1">
          <mxGeometry x="-22.5" y="1609" width="60" height="60" as="geometry" />
        </mxCell>
        <mxCell id="Fa6GfZsPcnkaOSwE8bsE-189" value="" style="endArrow=classic;html=1;rounded=0;entryX=0.5;entryY=1;entryDx=0;entryDy=0;" edge="1" parent="1" target="Fa6GfZsPcnkaOSwE8bsE-188">
          <mxGeometry width="50" height="50" relative="1" as="geometry">
            <mxPoint x="6.969999999999999" y="1720" as="sourcePoint" />
            <mxPoint x="6.969999999999999" y="1669" as="targetPoint" />
          </mxGeometry>
        </mxCell>
        <mxCell id="Fa6GfZsPcnkaOSwE8bsE-190" value="Input 1" style="text;html=1;align=center;verticalAlign=middle;whiteSpace=wrap;rounded=0;fontSize=16;" vertex="1" parent="1">
          <mxGeometry x="-22.5" y="1720" width="60" height="30" as="geometry" />
        </mxCell>
        <mxCell id="Fa6GfZsPcnkaOSwE8bsE-191" value="" style="endArrow=classic;html=1;rounded=0;entryX=0;entryY=1;entryDx=0;entryDy=0;exitX=0.5;exitY=0;exitDx=0;exitDy=0;" edge="1" parent="1" source="Fa6GfZsPcnkaOSwE8bsE-188" target="Fa6GfZsPcnkaOSwE8bsE-144">
          <mxGeometry width="50" height="50" relative="1" as="geometry">
            <mxPoint x="129.5" y="1619" as="sourcePoint" />
            <mxPoint x="168.5" y="1462" as="targetPoint" />
          </mxGeometry>
        </mxCell>
        <mxCell id="Fa6GfZsPcnkaOSwE8bsE-192" value="&lt;font style=&quot;font-size: 16px;&quot;&gt;&lt;b&gt;&lt;u&gt;Offsrping&lt;/u&gt;&lt;/b&gt;&lt;/font&gt;" style="text;html=1;align=center;verticalAlign=middle;whiteSpace=wrap;rounded=0;" vertex="1" parent="1">
          <mxGeometry x="-1062.5" y="1290" width="100" height="30" as="geometry" />
        </mxCell>
        <mxCell id="Fa6GfZsPcnkaOSwE8bsE-208" value="" style="endArrow=classic;html=1;rounded=0;exitX=0.5;exitY=0;exitDx=0;exitDy=0;" edge="1" parent="1" source="Fa6GfZsPcnkaOSwE8bsE-188" target="Fa6GfZsPcnkaOSwE8bsE-142">
          <mxGeometry width="50" height="50" relative="1" as="geometry">
            <mxPoint x="17.5" y="1619" as="sourcePoint" />
            <mxPoint x="168.5" y="1462" as="targetPoint" />
          </mxGeometry>
        </mxCell>
        <mxCell id="Fa6GfZsPcnkaOSwE8bsE-209" value="6" style="ellipse;whiteSpace=wrap;html=1;fontSize=16;fillColor=#f8cecc;strokeColor=#b85450;" vertex="1" parent="1">
          <mxGeometry x="209.5" y="1505" width="60" height="60" as="geometry" />
        </mxCell>
        <mxCell id="Fa6GfZsPcnkaOSwE8bsE-210" value="" style="endArrow=classic;html=1;rounded=0;entryX=0.5;entryY=1;entryDx=0;entryDy=0;" edge="1" parent="1" source="Fa6GfZsPcnkaOSwE8bsE-145" target="Fa6GfZsPcnkaOSwE8bsE-209">
          <mxGeometry width="50" height="50" relative="1" as="geometry">
            <mxPoint x="249.5" y="1619" as="sourcePoint" />
            <mxPoint x="150.5" y="1566" as="targetPoint" />
          </mxGeometry>
        </mxCell>
        <mxCell id="Fa6GfZsPcnkaOSwE8bsE-211" value="" style="endArrow=classic;html=1;rounded=0;entryX=1;entryY=0.5;entryDx=0;entryDy=0;exitX=0.5;exitY=0;exitDx=0;exitDy=0;" edge="1" parent="1" source="Fa6GfZsPcnkaOSwE8bsE-209" target="Fa6GfZsPcnkaOSwE8bsE-144">
          <mxGeometry width="50" height="50" relative="1" as="geometry">
            <mxPoint x="249.5" y="1619" as="sourcePoint" />
            <mxPoint x="249.5" y="1575" as="targetPoint" />
          </mxGeometry>
        </mxCell>
      </root>
    </mxGraphModel>
  </diagram>
</mxfile>
